<svg width="311" height="214" viewBox="0 0 311 214" xmlns="http://www.w3.org/2000/svg" xmlns:xlink="http://www.w3.org/1999/xlink"><title>Page 1</title><defs><path id="a" d="M0 0h371v214H0z"/></defs><g transform="translate(-60)" fill="none" fill-rule="evenodd"><mask id="b" fill="#fff"><use xlink:href="#a"/></mask><g mask="url(#b)" fill="#B7D3E0"><path d="M382.769 352.018a43.827 43.827 0 0 1-.387-2.502 40.77 40.77 0 0 1-.27-7.313l.032-.72c.052-1.857-.07-4.286-.358-7.423l-1-10.006-.972-8.896-1.47-13.658-2.73-25.918-1.365-13.046-.902-8.393-.775-7.094-.27-2.57-.653-6.321-1.066-10.257-1.08-10.037-1.046-9.877-.442-3.7c-.232-1.435-.52-2.713-.854-3.792l-.255-.783c-.354-1.062-.717-2.16-.935-3.806a22.64 22.64 0 0 1-.133-4.467l.242-1.482c.402-1.426 1.146-1.436 1.8-1.445l.563-.049.815-.215 3.01-.693.779-.108c.71-.078 1.354-.15 2.06.706.576.7 1.035 1.92 1.362 3.617.318 1.643.49 3.523.46 4.916l-.045 1.09-.036 2.28.109 1.927.442 4.612.523 4.562.699 6.166 2.484 21.587.779 6.513s.563 4.933.885 7.77v98.825zM356.036 40.28l.487-.035.698-.173 2.665-.578.685-.086c.627-.059 1.19-.113 1.778.638.483.61.846 1.674 1.087 3.159.227 1.434.328 3.073.259 4.28l-.072.944-.097 1.983.04 1.678.256 4.014.316 3.889.442 5.454 1.55 18.796.49 5.664.686 8.444 1.519 18.12 1.592 18.594 1.166 13.802c.645 7.393 1.212 13.135 1.786 18.072l.309 2.398.724 3.728.137.574c.427 1.803.83 3.507 1.019 5.845.151 1.88.132 3.805-.056 5.28-.176 1.41-.532 1.53-.906 1.655l-.164.062-1.093.254-.752.137-.502.073-5.006.472c-.388.057-.963.044-1.514-.726l-.539-1.07c-.39-1.054-.756-3.048-.955-5.2a34.865 34.865 0 0 1-.024-6.362l.046-.626c.098-1.638.066-3.687-.097-6.459l-.586-8.71-.59-7.685-.898-11.948-1.64-22.585-.813-11.338-.546-7.308-.477-6.174-.16-2.25-.385-5.49-.638-8.927-.654-8.717-.634-8.623-.28-3.22c-.16-1.254-.373-2.365-.634-3.304l-.2-.686c-.278-.927-.564-1.885-.709-3.318a19.92 19.92 0 0 1 .012-3.89l.258-1.283c.39-1.236 1.04-1.236 1.614-1.238m-5.313-88.438l.399-.02.576-.107 2.193-.352.561-.053c.505-.039.971-.075 1.437.373.377.36.646.994.802 1.88.15.851.189 1.828.1 2.547l-.08.56-.135 1.185-.01 1.001.1 2.393.157 2.288.215 3.273.774 11.197.25 3.375.335 4.985.762 10.835.811 11.099.588 8.195c.229 3.034.546 6.998.985 10.762l.183 1.43.497 2.22.096.346c.3 1.07.586 2.082.677 3.474.073 1.123.006 2.269-.184 3.144-.182.842-.474.915-.783.99l-.138.04-.89.153-.627.086-.406.041-4.11.304c-.318.032-.791.025-1.216-.428l-.417-.638c-.288-.626-.534-1.814-.643-3.093a15.732 15.732 0 0 1 .15-3.79l.055-.376c.123-.964.152-2.221.091-3.848l-.247-5.189-.277-4.537-.418-7.156-.745-13.465-.365-6.742-.253-4.328-.225-3.703-.062-1.123-.182-3.487-.286-5.318-.304-5.22-.286-5.104-.146-1.92a10.37 10.37 0 0 0-.43-1.966l-.142-.4c-.203-.55-.413-1.126-.492-1.988a8.255 8.255 0 0 1 .115-2.313l.238-.768c.352-.736.884-.736 1.352-.744m-21.384 100.06c1.21-.158 2.308-.303 3.452.748.94.86 1.64 2.402 2.09 4.572.437 2.099.619 4.518.479 6.322l-.141 1.413-.204 2.954.07 2.486.469 5.932.61 5.86.808 7.922 2.896 27.73.923 8.364 1.281 12.479 2.842 26.712 2.966 27.323 2.195 20.46c.758 6.874 1.936 17.108 3.363 26.632l.58 3.532c.39 2.133.923 3.935 1.392 5.453l.262.85c.819 2.625 1.592 5.105 1.94 8.55.282 2.773.23 5.63-.139 7.846-.352 2.105-1.04 2.324-1.765 2.557l-.327.108-2.126.499-1.469.288-.95.159-9.768 1.256c-.756.121-1.88.16-2.94-.915l-1.048-1.53c-.751-1.53-1.449-4.445-1.825-7.612a40.02 40.02 0 0 1-.005-9.444l.097-.934c.196-2.405.146-5.538-.156-9.574l-1.083-12.864-1.106-11.435-1.661-17.552-3.048-33.317-1.515-16.77-1.016-10.786-.885-9.121-.3-3.3-.72-8.125-1.183-13.188-1.215-12.899-1.176-12.695-.527-4.752c-.303-1.842-.712-3.468-1.216-4.838l-.385-.993c-.533-1.347-1.081-2.735-1.354-4.85-.281-2.184-.156-4.415.05-5.77l.502-1.937c.773-1.874 2.036-1.948 3.146-2.013l.956-.109 1.399-.341 5.152-1.142 1.333-.201zm-19.874-189.05l.832-.085 1.191-.28 4.566-.963 1.168-.164c1.067-.127 2.024-.24 2.977.68.783.753 1.336 2.102 1.65 4.004.302 1.839.373 3.948.18 5.514l-.179 1.233-.286 2.569-.034 2.169.182 5.173.305 5.005.42 7.02 1.475 24.196.488 7.292.644 10.87 1.471 23.324 1.567 23.93 1.134 17.764c.638 9.513 1.252 16.897 1.926 23.237l.375 3.08 1.005 4.765.193.731c.614 2.299 1.193 4.47 1.372 7.482.141 2.42-.008 4.912-.416 6.833-.39 1.841-.999 2.022-1.64 2.217l-.283.094-1.867.416-1.29.238-.857.134-8.53 1.01c-.66.108-1.639.137-2.527-.812l-.85-1.346c-.598-1.33-1.096-3.88-1.304-6.648a35.092 35.092 0 0 1 .349-8.23l.115-.815c.27-2.127.343-4.778.23-8.347l-.456-11.228-.533-9.893-.794-15.387-1.398-29.09-.688-14.603-.48-9.414-.43-7.952-.137-2.897-.316-7.073-.538-11.499-.572-11.227-.547-11.1-.279-4.15c-.197-1.61-.49-3.03-.876-4.222l-.299-.874c-.413-1.174-.842-2.39-.998-4.236a19.64 19.64 0 0 1 .262-5.032l.509-1.68c.741-1.631 1.844-1.684 2.818-1.733M213.826 87.35c-6.69 11.255-13.602 22.89-16.319 36.555a62.543 62.543 0 0 0-1.166 10.303l-.039 1.11c-.078 2.169-.172 4.875.156 7.157l.536 2.217c-.187-1.31 3.269-4.568 5.332-6.518l1.292-1.252 1.487-1.774c6.294-7.886 10.066-17.777 12.926-26.407 2.826-8.534 4.178-17.638 5.484-26.44 1.226-8.257 2.494-16.79 4.975-24.843-3.34 10.84-9.096 20.526-14.664 29.892m42.678-23.87c-1.024.932-1.572 2.28-1.632 4.004-.063 1.675.29 3.497.917 4.756l.526.97.993 2.095.52 1.833.836 4.464.637 4.492.869 5.998c.613 3.918 2.152 14.233 2.975 21.113l.84 6.384 1.436 9.965 2.732 19.884 2.786 20.87 2.118 15.57c1.082 8.325 1.747 14.83 2.094 20.466l.1 2.757c.006 1.517-.192 2.867-.494 4.421l-.14.696c-.431 2.175-.841 4.23-.465 6.853.311 2.115 1.08 4.18 2.111 5.662.98 1.423 1.939 1.36 2.953 1.292l.454-.03 2.922-.325 1.996-.264 1.304-.197 13.147-2.244c1.018-.154 2.508-.49 3.64-1.617l.284-.307.716-1.145c.615-1.347.822-3.694.54-6.131a17.604 17.604 0 0 0-2.305-6.87l-.352-.65c-.853-1.702-1.55-3.992-2.14-7.017l-1.726-9.711-1.342-8.676-2.112-13.308-4.15-25.242-2.104-12.68-.866-5.184-.443-3.016-1.064-6.902-.414-2.494-1.045-6.148-.98-5.85-.687-4.127-1.564-9.824c-.63-4.133-1.231-8.039-1.554-9.575a20.908 20.908 0 0 1-.474-3.627c-.051-1.443.091-2.758.416-3.91l.264-.854c.372-1.147.755-2.341.594-3.967-.166-1.675-.871-3.257-1.48-4.179l-.835-.998-.296-.246c-1.476-1.116-3.156-.76-4.636-.446l-1.281.228-1.847.195-7.134.843-2.027.329c-1.422.237-2.893.49-4.13 1.621m-17.357-145.9c-.907.758-1.413 1.9-1.494 3.397-.08 1.443.199 3.037.725 4.159l.447.868.834 1.857.423 1.61.662 3.908.479 3.863.668 5.293c.47 3.41 1.642 12.407 2.257 18.429l.627 5.568 1.049 8.344.608 4.834 1.505 12.872 2.1 18.256 1.594 13.536c.807 7.25 1.281 12.914 1.495 17.824l.04 2.393c-.016 1.45-.27 2.728-.505 3.806l-.13.592c-.415 1.867-.807 3.629-.517 5.923.234 1.841.873 3.663 1.75 4.997.83 1.28 1.672 1.267 2.56 1.254l.4.002 2.555-.15 1.761-.134 1.151-.11 11.54-1.335c.62-.061 1.547-.195 2.406-.661l.809-.571c.37-.335.674-.744.902-1.212.56-1.143.778-3.17.573-5.288a15.683 15.683 0 0 0-1.906-6.058l-.296-.578c-.727-1.52-1.283-3.483-1.76-6.178l-1.353-8.493-1.027-7.55-1.633-11.654-3.22-22.062-1.62-10.974-1.05-7.487-.792-5.805-.312-2.118-.823-5.436-.785-5.26-.513-3.459-1.197-8.52-1.214-8.426a18.766 18.766 0 0 1-.354-3.165c-.02-1.251.121-2.382.428-3.368l.243-.725c.348-.98.704-1.991.59-3.41-.12-1.465-.712-2.866-1.23-3.692l-.967-1.132-.76-.464c-1.083-.48-2.259-.298-3.294-.132l-1.125.135-1.622.086-6.257.4-1.762.187c-1.256.14-2.552.29-3.663 1.214m-97.3 196.868l-.058.037c-.632 1.29 22.505 16.464 37.814 26.503 7.331 4.807 13.113 8.602 14.447 9.643 15.687 10.886 35.88 25.751 52.98 44.258 4.932 4.67 17.793 22.497 21.773 28.935l.933 1.223c1.836 2.206 3.52 2.576 4.365 1.965.705-.503.854-1.653.39-3.074-1.276-5.462-14.024-22.345-19.742-28.323-14.123-16.087-31.802-30.965-55.63-46.816-3.448-2.717-55.121-34.928-57.272-34.35"/><path d="M189.332 37.937l.004.895-.004.522c-.065 8.801-1.2 17.665-2.294 26.233l-.117.9c-1.19 9.307-2.54 19.857-2.094 30.377.455 10.658 1.518 23.071 5.973 34.305l1.087 2.553 1.016 1.894.57 1.032c1.108 1.998 2.457 4.525 3.053 6.34.354 1.068.402 1.775.149 2.108l.545-.802.826-1.588.523-1.28.738-2.214.884-3.313 1.363-6.074c.548-2.838.909-5.43 1.102-7.907 1.273-16.125-2.704-31.738-6.546-46.841l-3.196-13.034c-2.323-10.241-3.436-18.203-3.602-25.807l.02 1.7zm-53.102 79.227l-4.006 3.574-1.6 1.728c-6.798 7.712-11.103 17.625-14.415 26.308-3.27 8.572-5.058 17.818-6.786 26.758-1.622 8.388-3.299 17.063-6.196 25.164 3.905-10.908 10.228-20.5 16.345-29.771 7.348-11.141 14.947-22.66 18.335-36.5a63.626 63.626 0 0 0 1.652-10.491l.219-1.884c.339-2.604.769-5.85-.583-7.532 0 .038-1.443 1.302-2.965 2.646"/><path d="M126.848 116.336c-2.422.676-4.576 1.438-6.584 2.319-12.985 5.732-23.298 16.552-33.266 27.008l-8.663 8.91c-6.89 6.814-12.544 11.405-18.335 14.882l.805-.475 1.187-.68.402-.222c6.812-3.765 14.133-6.472 21.216-9.09l.76-.282c7.7-2.852 16.427-6.08 24.338-11.108 8.02-5.096 17.13-11.574 23.85-20.979l1.503-2.205 1.015-1.852.544-1.025c1.067-1.999 2.434-4.463 3.566-5.848.672-.824 1.195-1.182 1.558-1.074l-.856-.2-1.581-.142-1.215.028-2.03.22-2.942.548-5.272 1.267zm-44.561-63.64l7.452 12.02c8.533 14.046 17.359 28.573 30.144 38.362 1.968 1.51 4.129 2.926 6.604 4.333l5.42 2.834 3.051 1.406 2.147.8 1.3.366 1.736.288.966.02c-.418.02-.906-.518-1.456-1.588-.928-1.813-1.881-4.849-2.606-7.295l-.357-1.218-.71-2.318-1.154-2.798c-5.25-12-13.699-21.517-21.27-29.246C106.083 61.04 97.36 55.13 89.67 49.92l-.73-.495c-7.092-4.798-14.422-9.758-20.98-15.722l-.508-.46-1.014-.947-.764-.74c5.504 5.357 10.625 11.879 16.613 21.14m39.635-26.821l.293 1.726c1.05 4.286 2.28 8.024 3.776 11.436 4.732 10.813 8.296 23.302 11.211 39.293 1.025 5.628 1.891 11.386 2.726 16.957.829 5.542 1.69 11.268 2.708 16.862l1.456-3.11.865-2.616c1.402-4.892 1.861-10.497 2.089-14.285.194-3.263.158-6.137-.103-8.78a79.093 79.093 0 0 0-1.385-8.785c-3.014-13.877-9.429-25.913-15.634-37.56l-1.091-2.026c-1.55-2.847-3.147-5.797-4.323-8.865l-.608-1.79-1.077-2.9-.985-1.56c-.559-.64-1.2-1.077-1.96-1.325.967.316 1.642 4.706 2.042 7.328m157.734 33.867c1.574-.385 4.665 5.846 6.512 9.564l1.162 2.248 1.718 2.664c7.738 11.35 18.56 19.39 28.13 25.761 9.45 6.288 19.987 10.49 30.175 14.56 9.56 3.817 19.443 7.761 28.418 13.42-12.078-7.615-22.118-18.593-31.832-29.207-11.667-12.753-23.734-25.94-39.363-33.294a62.545 62.545 0 0 0-12.025-4.214l-1.33-.324c-3.654-.894-8.199-2.01-11.565-1.178"/><path d="M288.322 76.105c3.222 5.524 6.546 11.24 9.632 16.985 8.765 16.349 14.436 30.262 17.844 43.785 1.08 4.28 2.625 8.601 4.732 13.212l.975 1.755c1.501 2.606 4.014 6.961 3.363 8.109a6.346 6.346 0 0 0 .83-2.911 8.973 8.973 0 0 0-.217-2.235c-.25-1.17-.676-2.335-1.093-3.456l-.723-2.08c-1.121-3.704-1.771-7.682-2.402-11.533l-.448-2.705c-2.671-15.596-5.429-31.723-12.6-46.323a79.517 79.517 0 0 0-5.01-8.77c-1.64-2.494-3.661-4.98-6.164-7.598-2.904-3.032-7.32-7.4-12.08-10.317l-2.66-1.453a21.636 21.636 0 0 0-3.54-1.332c3.064 5.71 6.369 11.381 9.56 16.867m94.448 56.515l-1.225.323c-.737.216-1.838.439-2.873-.082l-1.022-.822c-.725-.86-1.4-2.652-1.759-4.673-.356-2.01-.346-4.09.024-6.182l.096-.613c.201-1.628.163-3.67-.122-6.264l-1.011-8.242-1.036-7.227-1.58-11.28-2.87-21.298-1.427-10.727-.958-6.875-.84-5.836-.317-2.39-.64-4.916-1.115-8.436-1.151-8.254-1.1-8.098-.504-3.023c-.293-1.159-.686-2.153-1.175-2.953l-.372-.58c-.517-.787-1.05-1.606-1.311-2.952-.27-1.377-.138-2.857.072-3.785l.496-1.353c.757-1.366 1.995-1.634 3.086-1.869l.935-.24 1.315-.448 5.1-1.665 1.305-.365c1.196-.316 2.267-.599 3.38-.111.915.396 1.596 1.281 2.033 2.63.42 1.304.593 2.858.447 4.061l-.144.945-.21 1.975.058 1.615.442 3.804.566 3.672.778 5.112 2.745 17.665.868 5.317s.658 4.308 1.016 6.64v87.8zM357.06-1.058c.261 1.77-.734 4.016-1.532 5.819l-.645 1.531a53.092 53.092 0 0 1-3.953 8.321c-6.243 10.583-15.463 17.866-24.386 24.906-7.424 5.861-15.104 11.922-21.063 19.872 4.425-5.904 7.957-12.68 11.375-19.237 3.643-6.989 7.411-14.218 12.266-20.396 4.913-6.258 10.966-13.24 18.58-17.573l1.776-.943 4.318-1.757c1.652-.657 3.083-1.229 3.08-1.247l.184.704zm-19.103-9.28c1.89.154 3.874.473 6.057.97l4.664 1.26 2.545.83 1.707.702.986.5 1.226.8.625.533c-.256-.25-.786-.187-1.613.189-1.353.62-3.273 2.014-4.796 3.165l-.715.546-1.48 1.096-1.937 1.131c-8.508 4.661-17.967 5.94-26.095 6.574-8.038.633-16.116-.541-23.245-1.572l-.692-.101c-6.566-.95-13.352-1.935-20.076-1.842l-.57.004-.51.015c-.081.002-1.297.054-1.297.054 5.791-.3 11.853-1.55 19.65-4.058l9.9-3.428c11.466-4.11 23.327-8.361 35.666-7.368"/><path d="M370.921-26.505c-1.167-.164-3.073 4.852-4.213 7.851l-.716 1.809-1.104 2.178c-5.007 9.321-12.447 16.36-19.06 22.012-6.532 5.586-13.98 9.675-21.177 13.63-6.75 3.707-13.734 7.54-19.959 12.606 8.379-6.819 15.082-16.04 21.568-24.952 7.79-10.712 15.845-21.786 26.825-28.698a46.062 46.062 0 0 1 8.525-4.219l.952-.354c2.61-.988 5.86-2.218 8.36-1.863"/><path d="M359.454.488c-5.472 13.212-8.829 24.31-10.56 34.93-.545 3.349-1.43 6.776-2.708 10.484l-.611 1.417c-.948 2.113-2.537 5.654-1.998 6.476a4.818 4.818 0 0 1-.768-2.155l.028-1.723.604-2.721.412-1.661c.612-2.92.863-6.011 1.108-9.002l.174-2.108c1.08-12.148 2.197-24.708 6.594-36.43a65.11 65.11 0 0 1 3.16-7.118c1.057-2.04 2.39-4.108 4.07-6.316 1.952-2.561 4.929-6.27 8.23-8.883l1.852-1.33 2.505-1.31L359.454.488zm-91.76 178.252l1.163 1.368a54.262 54.262 0 0 1 6.192 8c7.424 11.647 10.63 25.658 13.739 39.21 2.582 11.276 5.258 22.938 10.342 33.23-3.778-7.645-8.704-14.541-13.47-21.212-5.083-7.11-10.337-14.464-14.204-22.74-3.92-8.373-8.068-18.41-9.16-29.333l-.196-2.52.03-5.78c.02-2.235.039-4.349.017-4.373 1.995-.173 3.962 2.223 5.547 4.15m-1.494-52.653l2.192-.32 1.74-.05c2.87-.03 7.671-.083 7.999-1.388-.694 2.796-2.964 5.76-4.79 8.144l-.651.856a52.896 52.896 0 0 1-6.752 7.387c-9.88 8.925-21.985 13.125-33.69 17.183-9.747 3.379-19.821 6.873-28.612 13.08 6.528-4.61 12.362-10.507 18.003-16.207 6.015-6.08 12.236-12.369 19.313-17.109 7.156-4.796 15.756-9.92 25.247-11.576M330.33 65.36c10.122 7.858 20.594 15.979 27.72 27.869a59.683 59.683 0 0 1 4.53 9.344l.403 1.052c.795 2.044 1.781 4.588 2.222 6.914l.226 2.347c-.258-1.333-4.642-2.942-7.264-3.913l-1.65-.638-2.013-1.05c-8.62-4.8-15.51-12.624-21.11-19.64-5.53-6.932-9.838-15.049-14.003-22.898-3.913-7.365-7.954-14.983-12.996-21.602 6.788 8.913 15.503 15.675 23.935 22.215m52.439 138.824c-11.31-10.828-23.354-21.6-36.036-32.223-4.55-3.803-19.491-15.848-33.804-25.755-6.105-4.5-12.35-8.77-17.365-12.204-7.766-5.313-13.377-9.152-12.987-10.025 1.262-.48 15.931 6.85 30.872 16.694 6.72 4.16 17.832 11.543 32.594 23.071l.38.294c12.282 9.507 24.436 19.75 36.346 30.634v9.514z"/><path d="M382.769 198.906c-1.667-3.491-3.217-7.513-3.83-9.669-3.44-10.225-5.507-20.795-7.511-31.02l-1.448-7.292-.257-1.445c-.592-3.21-1.977-10.723-2.645-18.098-.86-8.36-.599-16.671.023-17.46l.093-.056c.414 0 .73 2.854 1.167 6.804l1.17 9.355c1.112 7.927 2.805 16.295 3.198 18.1l1.606 7.17c2.158 9.698 4.39 19.727 7.236 29.13.218.823.646 2.008 1.198 3.38v11.1zm-95.551-41.484l.524-.111a114.661 114.661 0 0 1 33.044-1.602c3.483.208 13.619 1.544 16.89 3.46l.664.394c1.143.796 1.38 1.93 1.221 2.725-.159.828-.746 1.422-1.496 1.513-1.094-.011-3.779-.697-6.62-1.421-3.074-.782-6.252-1.592-8.15-1.762-10.742-1.515-21.96-1.498-33.347.056-1.137.092-9.02 1.362-16.346 3.795-4.309 1.252-8.178 3.28-10.737 4.628-1.779.928-2.948 1.54-3.123 1.28.21-1.109 5.622-5.924 12.25-8.432 6.242-2.7 13.001-4.073 15.226-4.523M197.902 39.007l1.239 1.082.429.36c7.163 6.064 15.113 11.041 22.803 15.853l.869.544c8.376 5.236 17.87 11.175 26.08 18.999 8.32 7.927 17.634 17.735 23.627 30.318l1.312 2.938.832 2.426.425 1.303c.855 2.577 1.962 5.782 3.014 7.677.62 1.117 1.16 1.666 1.6 1.632l-1.031.014-1.864-.232-1.397-.334-2.315-.768-3.304-1.368-5.87-2.802c-2.682-1.396-5.03-2.818-7.184-4.348-13.947-9.91-23.824-25.041-33.37-39.667l-8.343-12.525c-6.676-9.622-12.35-16.365-18.397-21.86l.845.758zm184.867 60.791a56.224 56.224 0 0 1-3.587 4.087l-1.864 1.827-1.649 1.312-.792.613c-1.69 1.31-3.78 2.986-4.952 4.366-.657.775-.951 1.377-.873 1.79l-.21-.921-.195-1.813-.038-1.392.1-2.34.34-3.402.861-6.11c.478-2.807 1.04-5.315 1.722-7.666 2.519-8.679 6.536-16.433 11.137-23.712v33.361zm-119.823 75.53c.253 1.894 1.102 4.654 1.812 6.847l.411 1.268.6 1.925.587 2.724c2.3 11.904 1.105 24.146-.366 34.551-1.453 10.276-4.646 20.152-7.462 28.862l-.247.763c-2.602 8.05-5.298 16.372-6.943 24.891-.011.07-.095.499-.095.499l-.236 1.317c-.034.175-.191 1.11-.191 1.11 1.185-7.301 1.539-15.255 1.125-25.693l-.756-13.362c-1.008-15.489-2.053-31.504 2.062-46.784.629-2.35 1.445-4.765 2.484-7.38l2.4-5.548 1.447-2.995 1.116-1.969.734-1.108 1.082-1.344.665-.647c-.3.262-.38.96-.229 2.073m-18.566-1.779l2.687-.38 2.142-.056 1.136-.01c2.264-.029 5.09-.121 6.888-.57 1.06-.262 1.657-.628 1.773-1.09l-.318 1.047-.78 1.806-.712 1.307-1.336 2.094-2.127 2.897-4.047 5.03c-1.935 2.253-3.787 4.166-5.667 5.858-12.14 10.905-26.986 16.002-41.34 20.94l-12.336 4.389c-9.591 3.653-16.616 7.212-22.783 11.543l1.054-.756 1.033-.76.417-.312c7.027-5.312 13.458-11.787 19.675-18.045l.598-.598c6.743-6.778 14.387-14.46 23.054-20.232 8.795-5.853 19.354-12.108 30.99-14.102m-63.326-32.046l2.725.469 1.658.343c2.914.454 5.953.435 8.894.416l2.08-.01c11.95.029 24.308.06 36.245 4.389a56.54 56.54 0 0 1 7.287 3.248c2.118 1.134 4.278 2.607 6.611 4.507 2.712 2.21 6.653 5.603 9.572 9.534l1.499 2.223 1.558 3.057-28.102-12.419c-13.473-5.53-24.664-8.587-35.221-9.624-3.32-.324-6.762-1.074-10.52-2.297l-1.447-.622c-2.166-.978-5.798-2.621-6.539-1.842.585-.61 1.245-1.01 2.015-1.22l1.685-.152zm114.869-53.056l2.445.422 1.48.31c2.604.407 5.331.388 7.963.37l1.867-.007c10.706.027 21.776.055 32.467 3.931a50.237 50.237 0 0 1 6.526 2.91c1.906 1.023 3.842 2.344 5.919 4.035 2.423 1.975 5.95 5.005 8.57 8.54l1.347 1.992 1.393 2.737-25.17-11.121c-12.068-4.955-22.094-7.691-31.544-8.621-2.986-.29-6.07-.966-9.424-2.058l-1.305-.561c-1.939-.876-5.184-2.345-5.844-1.646.521-.551 1.112-.912 1.801-1.09l1.51-.143zm70.468 117.596c2.936-.59 7.305-1.333 11.327-.988l2.185.304 2.679.786-24.59 12.706c-11.553 6.36-20.298 12.607-27.518 19.661-2.275 2.227-4.86 4.266-7.9 6.23l-1.259.67c-1.909.968-5.098 2.582-5.133 3.614.027-.816.218-1.55.591-2.238l.971-1.324 1.98-1.7 1.23-.994c2.083-1.833 3.98-4.063 5.816-6.214l1.315-1.542c7.535-8.705 15.328-17.71 25.247-23.701a51.364 51.364 0 0 1 6.391-3.277c1.972-.833 4.15-1.485 6.668-1.993"/></g></g></svg>