<svg width="314" height="210" viewBox="0 0 314 210" xmlns="http://www.w3.org/2000/svg" xmlns:xlink="http://www.w3.org/1999/xlink"><title>Group 4</title><defs><path id="a" d="M0 0h347v210H0z"/><path id="c" d="M0 1008.994h342.784V0H0z"/></defs><g transform="translate(-21)" fill="none" fill-rule="evenodd"><mask id="b" fill="#fff"><use xlink:href="#a"/></mask><g opacity=".7" mask="url(#b)"><g transform="translate(21 -521)"><path d="M.013 554.261c.155-.838.296-1.734.411-2.661.33-2.62.426-5.24.286-7.78l-.033-.766c-.055-1.975.074-4.56.38-7.896l1.062-10.645 1.032-9.464 1.562-14.528 2.898-27.572 1.45-13.88.958-8.927.823-7.547.288-2.735.692-6.723 1.133-10.911 1.145-10.677 1.112-10.508.47-3.937c.245-1.525.552-2.885.907-4.032l.27-.835c.376-1.13.762-2.296.993-4.049.241-1.81.23-3.644.14-4.75l-.256-1.578c-.427-1.516-1.216-1.528-1.911-1.537l-.598-.052-.866-.229-3.197-.737-.826-.114c-.755-.084-1.439-.16-2.187.75-.613.745-1.1 2.043-1.448 3.849-.338 1.748-.52 3.747-.489 5.23l.049 1.158.038 2.425-.116 2.05-.469 4.907-.555 4.853-.742 6.56-2.639 22.964-.827 6.928s-.598 5.249-.94 8.265v105.13zm0 394.338l1.605.178c1.653.23 2.993-.079 4.094-.955l1.418-1.669c1.005-1.652 1.899-4.842 2.325-8.317.425-3.471.33-6.956-.29-10.35l-.158-1.024c-.353-2.64-.383-6.073-.088-10.491l1.115-14.092 1.192-12.437 1.786-19.278 3.231-36.454 1.603-18.378 1.081-11.754.965-10.038.27-3.063.801-9.454 1.25-14.425 1.301-14.107 1.253-13.912.59-5.206c.37-2.03.895-3.806 1.554-5.273l.51-1.087c.706-1.476 1.435-2.99 1.752-5.308.322-2.37.08-4.817-.254-6.32l-.763-2.12c-1.146-2.067-2.921-2.167-4.49-2.253l-1.338-.13-1.886-.378-7.354-1.334-2.095-.263c-1.492-.167-3.034-.337-4.6.795-1.292.933-2.232 2.61-2.796 4.987-.556 2.326-.735 4.92-.473 6.928l.244 1.554.377 3.229-.019 2.718-.472 6.496-.662 6.322-.897 8.766c-.315 3.35-.961 9.914-1.682 16.75V948.6zm43.288-479.435l-1.142-.096-1.591-.327-6.312-1.154-1.6-.19c-1.46-.146-2.782-.277-4.126.907-1.103.975-1.905 2.685-2.39 5.093-.471 2.333-.622 5.008-.405 6.987l.205 1.538.324 3.267-.018 2.745-.406 6.552-.553 6.236-.783 9-2.744 30.658-.884 9.239-1.192 13.592-2.72 29.737-2.855 30.365-2.077 22.462c-1.16 12.054-2.217 21.41-3.33 29.452l-.605 3.91c-.368 2.145-.878 3.972-1.526 6.052l-.296.945c-.91 2.917-1.773 5.664-2.099 9.478-.267 3.057-.129 6.217.377 8.642.479 2.318 1.31 2.538 2.187 2.78l.394.114 2.57.502 1.763.283 1.153.15 11.747 1.151c.905.123 2.252.143 3.504-1.079l1.213-1.706c.86-1.695 1.623-4.935 1.99-8.445.363-3.52.284-7.022-.243-10.413l-.135-1.033c-.31-2.678-.329-6.033-.069-10.568l.955-14.207 1.015-12.47 1.542-19.57 2.77-36.765 1.38-18.59.933-11.885.824-10.115.26-3.477.66-9.151 1.07-14.566 1.124-14.283 1.072-14.01.504-5.251c.319-2.052.764-3.852 1.333-5.36l.436-1.108c.604-1.495 1.226-3.046 1.496-5.386.278-2.412.072-4.87-.212-6.362l-.651-2.124c-.98-2.048-2.498-2.1-3.837-2.146" fill="#B7D3E0"/><path d="M.013 551.846c.075 2.177.153 4.708 0 7.103v-7.103z" fill="#B7D3E0"/><mask id="d" fill="#fff"><use xlink:href="#c"/></mask><path d="M87.32 608.598c1.459 1.095 2.287 2.619 2.445 4.53.158 1.849-.259 3.838-1.083 5.193l-.699 1.044c-.476.67-.963 1.367-1.298 2.229l-.642 1.99c-.368 1.338-.679 2.887-.98 4.873l-.692 4.857-.971 6.619c-.687 4.254-2.392 15.491-3.27 23.113l-.897 6.988-1.507 10.396c-1.081 7.351-2.198 14.955-3.057 22.275l-3.004 22.814-2.304 17.09c-.734 5.741-1.743 14.325-2.066 22.45l-.024 3.038c.054 1.851.48 3.503.875 4.918l.221.776c.7 2.431 1.355 4.734.934 7.605-.343 2.306-1.326 4.538-2.702 6.108-1.31 1.5-2.65 1.36-4.067 1.217l-.632-.065-4.088-.562-2.802-.428-1.829-.31-18.433-3.384c-1.427-.236-3.51-.706-5.148-2.035a6.415 6.415 0 0 1-1.458-1.673c-.914-1.533-1.303-4.139-1.007-6.808.289-2.66 1.274-5.158 2.92-7.432l.465-.684c1.117-1.807 1.996-4.29 2.697-7.606l2.001-10.601 1.516-9.521 2.378-14.526c2.841-15.627 3.93-22.512 4.722-27.538l2.418-13.895 1.47-8.895 1.203-7.616.37-2.12 1.303-7.325 1.104-6.29.802-4.612 1.765-10.695c.708-4.542 1.382-8.83 1.775-10.509.326-1.393.494-2.726.507-3.974.01-1.59-.244-3.055-.745-4.35l-.402-.949c-.57-1.304-1.157-2.64-.998-4.424.16-1.842 1.083-3.54 1.886-4.515a5.353 5.353 0 0 1 1.526-1.3c2.014-1.132 4.374-.62 6.458-.173l1.79.346 2.504.331 10.072 1.436 2.816.493c2.004.366 4.075.747 5.862 2.086m23.8-184.042c1.235 1.045 1.914 2.545 2.016 4.455.094 1.853-.299 3.865-1.033 5.247l-.62 1.074-1.152 2.291-.596 2.017-.932 4.933-.668 4.766-.979 6.813c-.678 4.322-2.362 15.71-3.254 23.313l-.903 7.048-1.468 10.322-.872 6.061-2.203 16.578-3.032 23.079-2.3 17.165c-.735 5.798-1.764 14.444-2.198 22.614l-.076 3.046c.01 1.855.34 3.507.655 4.897l.18.798c.552 2.41 1.067 4.685.648 7.567-.336 2.333-1.226 4.602-2.436 6.232-1.154 1.557-2.296 1.473-3.51 1.38l-.546-.038-3.518-.406-2.38-.323-1.536-.237-.807-.137c-.082-.01-8.645-1.542-8.645-1.542l-6.346-1.018c-1.908-.287-3.342-.892-4.382-1.85a5.644 5.644 0 0 1-1.219-1.62c-.75-1.5-1.036-4.104-.736-6.792a17.997 17.997 0 0 1 2.656-7.563l.411-.715c1.005-1.882 1.786-4.334 2.458-7.73l1.921-10.723 1.477-9.54 2.327-14.724 3.16-19.188 3.806-22.87 1.4-8.818 1.174-7.655.412-2.466 1.202-7.073 1.09-6.47.76-4.542 1.717-10.795c.7-4.586 1.36-8.921 1.73-10.62.301-1.403.476-2.752.507-4.008.043-1.596-.143-3.055-.553-4.333l-.326-.937c-.466-1.281-.943-2.609-.775-4.408.177-1.852 1-3.592 1.712-4.604a5.43 5.43 0 0 1 1.333-1.361c1.748-1.208 3.764-.79 5.542-.416l1.536.277 2.936.325 7.832.968 2.157.343.244.045c1.715.291 3.485.592 5.001 1.868M.013 704.066a971.187 971.187 0 0 1 6.717 15.082c4.986 10.216 18.064 44.32 19.237 57.752l.257 2.643c.258 4.981-1.46 7.38-3.003 7.91-1.522.537-3.154-.472-4.256-2.626-.993-2.697-2.753-8.717-4.794-15.7-3.671-12.569-8.236-28.21-11.593-35.913a848.337 848.337 0 0 0-2.565-6.244v-22.904zm0-136.784c.273-.482.496-.784.66-.875l.135-.02c.402.183-.033 2.524-.795 6.016v-5.12z" fill="#B7D3E0" mask="url(#d)"/><path d="M97.127 476.508l-1.241 1.404-.416.48c-7.02 8.138-13.112 17.455-18.995 26.472l-.623.944c-6.402 9.796-13.658 20.898-22.511 30.052-8.986 9.29-19.94 19.54-33.048 25.122l-3.046 1.202-2.413.645-1.391.35c-2.613.663-5.872 1.547-7.892 2.586-1.15.599-1.748 1.156-1.828 1.708.023-.19.14-1.238.14-1.238l.523-2.328.553-1.727 1.104-2.81 1.855-3.974 3.64-7.001c1.769-3.168 3.518-5.923 5.343-8.415 11.804-16.118 27.996-26.226 43.65-36.002l13.414-8.574c10.367-6.936 17.783-13.056 24.048-19.843l-.866.947zm-6.945 142.014c2.35 3.013 5.015 6.425 5.45 7.072l2.073 3.265c8.702 14.456 12.909 31.516 15.882 46.296 2.938 14.606 3.368 29.77 3.785 44.438.39 13.76.795 27.981 3.267 41.719-3.328-18.495-10.805-35.738-18.037-52.41-8.683-20.028-17.667-40.737-19.434-63.67a104.14 104.14 0 0 1 .108-17.078l.147-3.057c.132-4.21.302-9.454 2.848-11.647-.006.057 1.811 2.381 3.911 5.072m13.82-6.877l8.299 2.68c3.818 1.393 7.18 2.877 10.278 4.534 20.186 10.768 35.621 29.337 50.55 47.293 4.218 5.065 8.579 10.312 12.983 15.306 10.362 11.748 18.954 19.785 27.853 26.049l-1.243-.862-.67-.447a242.35 242.35 0 0 0-1.154-.783l-.624-.404c-10.519-6.858-21.948-12.102-33.005-17.166l-1.176-.538c-12.013-5.502-25.629-11.74-37.787-20.76-12.326-9.142-26.251-20.627-36.094-36.48l-2.183-3.718-1.532-3.283-.682-1.507c-1.518-3.323-3.473-7.448-5.143-9.788-1.01-1.414-1.795-2.039-2.388-1.9l1.385-.224 2.54-.033 1.929.197 3.224.602 4.64 1.232z" fill="#B7D3E0" mask="url(#d)"/><path d="M91.075 518.112c-2.263 11.938-4.597 24.282-4.815 36.763-.219 12.63.157 27.386 4.622 41.083l1.1 3.12 1.075 2.347c1.824 3.83 4.876 10.255 3.773 11.532 2.366-2.717 3.898-7.642 5.128-11.6l.458-1.463a84.508 84.508 0 0 0 3.105-13.761c2.636-18.936-.948-37.752-4.412-55.947-2.887-15.15-5.87-30.813-5.278-46.528-.441 11.677-2.635 23.254-4.756 34.454M.013 652.832c4.588-2.574 8.611-4.623 11.159-5.554 29.912-13.497 62.116-20.557 86.83-25.195 2.15-.546 11.178-1.981 22.607-3.794 23.868-3.791 59.936-9.526 59.704-11.53-2.53-2.085-82.343 8.601-87.918 10.033-37.245 6.175-66.266 14.723-91.334 26.892-.335.145-.683.297-1.048.463v8.685z" fill="#B7D3E0" mask="url(#d)"/><path d="M138.874 510.292l-9.848 14.669c-11.592 16.92-23.579 34.422-29.15 55.633-.854 3.27-1.548 6.77-2.118 10.686l-.978 8.504-.349 4.721-.054 3.249.093 1.925.336 2.505.332 1.332c-.166-.57.212-1.434 1.131-2.59 1.572-1.95 4.4-4.375 6.69-6.268l1.281-1.05 2.032-1.726 2.511-2.613c10.652-11.653 17.525-26.79 22.84-40.052 5.25-13.092 8.232-27.272 10.868-39.784l.274-1.312c2.42-11.485 4.923-23.362 8.748-34.545l.224-.663.401-1.133c.008-.018.785-2.146.785-2.146-3.595 9.557-8.544 19.01-16.05 30.658m40.632 107.248l-.566 2.519a86.693 86.693 0 0 0-2.579 14.28c-1.865 19.548 2.64 38.62 6.992 57.055 3.625 15.35 7.373 31.221 7.46 47.357-.066-11.985 1.671-23.965 3.35-35.563 1.79-12.37 3.636-25.149 3.309-37.946-.336-12.962-1.376-28.06-6.55-41.82l-1.264-3.138-3.546-6.997c-1.36-2.641-2.533-4.92-2.524-4.972-2.452 1.348-3.358 5.717-4.082 9.224" fill="#B7D3E0" mask="url(#d)"/><path d="M183.085 609.805c.82 2.426 1.456 6.355 1.918 9.512l.208 1.457.488 3.103.915 3.683c4.331 15.864 12.992 29.411 20.89 40.575 7.803 11.026 17.415 20.227 25.899 28.342l.801.76c7.819 7.474 15.906 15.208 22.876 23.983l.54.684.712.917 1.168 1.544c-5.784-7.79-10.903-16.922-16.612-29.603l-7.013-16.386c-7.98-19.11-16.232-38.864-30.138-53.731-2.137-2.29-4.528-4.519-7.3-6.798l-6.12-4.694-3.487-2.415-2.479-1.47-1.524-.74-2.069-.742s-1.088-.233-1.142-.25c.495.106.992.863 1.47 2.27zm129.301-63.318l-1.905.681-.647.225c-10.96 3.73-22.452 5.74-33.567 7.685l-1.16.202c-12.074 2.113-25.757 4.512-38.609 9.817-13.03 5.383-27.971 12.528-39.976 24.685l-2.701 2.882-1.957 2.555-.981 1.307c-1.834 2.458-4.509 5.936-6.538 7.742-1.194 1.052-2.028 1.432-2.555 1.164l1.23.533 2.335.656 1.81.294 3.078.233 4.496.006 8.125-.428c3.745-.337 7.114-.878 10.295-1.64 20.563-4.95 38.21-18.233 55.283-31.076l14.782-10.888c11.713-8.259 21.109-13.539 30.462-17.124l-1.3.49zm-64.676-48.163l-1.94 1.4-2.651 3.051-1.572 1.918c-2.861 3.212-6.203 6.02-9.436 8.734l-2.274 1.921c-13.046 11.152-26.54 22.686-36.526 38.54a96.79 96.79 0 0 0-5.669 10.34c-1.512 3.213-2.832 6.833-4.036 11.086-1.4 4.944-3.308 12.328-3.714 19.354l-.068 3.832a33.56 33.56 0 0 0 .466 4.798c3.782-6.51 7.417-13.272 10.93-19.817 3.541-6.587 7.2-13.395 11.006-19.94 10.819-18.597 20.889-32.364 31.694-43.321 3.42-3.463 6.65-7.489 9.873-12.31l1.149-2.029c1.674-3.09 4.477-8.26 5.84-8.098-1.073-.13-2.078.049-3.072.54M.013 710.034c2.914 1.79 5.812 3.415 8.606 4.92 10.124 5.476 21.199 8.706 31.907 11.828 10.044 2.935 20.43 5.97 30.021 10.839-12.91-6.556-23.999-16.76-34.725-26.627-11.04-10.157-22.401-20.601-35.809-27.12v26.16z" fill="#B7D3E0" mask="url(#d)"/><path d="M.013 729.512c4.204 8.049 7.49 15.695 10.041 23.289 1.42 4.244 3.332 8.502 5.844 13.024l1.128 1.694c1.732 2.504 4.633 6.711 4.055 7.95a6.61 6.61 0 0 0 .621-3.062l-.39-2.263-1.383-3.434-.895-2.043c-1.422-3.65-2.39-7.632-3.324-11.484l-.682-2.77c-3.703-14.78-7.525-30.028-15.015-43.616v22.715zm57.414-51.44l-2.89-.271-2.283.057c-3.767.163-10.076.433-10.57-1.254 1.059 3.62 4.195 7.35 6.716 10.355l.906 1.085c2.82 3.398 5.933 6.51 9.253 9.229 13.452 11.04 29.557 15.696 45.136 20.203 12.967 3.756 26.373 7.637 38.241 15.167-8.816-5.596-16.787-12.933-24.497-20.027-8.22-7.567-16.718-15.392-26.255-21.117-9.657-5.801-21.215-11.929-33.757-13.427M.013 572.204l.215-.31c-.071.101-.143.207-.215.306v.004zm0 133.329c6.85-5.498 13.685-10.697 19.311-14.986 9.906-7.53 17.066-12.974 16.506-14.093-1.567-.512-18.108 8.762-35.817 21.385v7.694z" fill="#B7D3E0" mask="url(#d)"/><path d="M.013 725.264c9.187-.822 18.596-.84 28.121-.057 1.497.035 11.906 1.153 21.65 3.83 5.722 1.342 10.907 3.733 14.337 5.318 2.38 1.1 3.951 1.822 4.166 1.462.03-.039.035-.103.015-.184-.348-1.252-7.703-7.196-16.538-10.027-8.35-3.116-17.289-4.438-20.227-4.87l-.688-.104A149.265 149.265 0 0 0 .013 719.49v5.773zm142.34-166.481l-1.567 1.514-.543.501c-9.107 8.515-19.32 15.646-29.199 22.536l-.978.688c-10.699 7.471-22.824 15.937-33.198 26.81-10.495 11.015-22.187 24.564-29.363 41.526l-1.568 3.955-.982 3.342-.466 1.647c-.98 3.454-2.27 7.744-3.539 10.3-.751 1.518-1.428 2.273-2.01 2.257l1.35-.045 2.436-.437 1.82-.546 2.99-1.17 4.26-2.03 7.553-4.095c3.426-2.017 6.433-4.055 9.19-6.23 17.776-14.017 29.92-34.606 41.665-54.522l10.254-17.017c8.241-13.128 15.321-22.391 22.959-30.04l-1.064 1.056zm27.621 133.527c-1.189.123-2.398.47-3.566.81l-2.146.563c-3.782.804-7.763.992-11.615 1.173l-2.756.14c-15.686.884-31.903 1.805-47.322 8.33a75.281 75.281 0 0 0-9.384 4.785c-2.705 1.63-5.462 3.721-8.43 6.382-3.433 3.094-8.419 7.823-12.044 13.215l-1.849 3.025a29.517 29.517 0 0 0-1.877 4.13c6.062-2.871 12.135-6.045 18.008-9.112 5.93-3.096 12.064-6.295 18.193-9.194 17.376-8.225 31.897-13.03 45.695-15.14 4.343-.663 8.818-1.893 13.674-3.77l1.855-.911c2.796-1.446 7.474-3.862 8.49-2.887-.8-.77-1.688-1.245-2.71-1.459-.67-.142-1.392-.171-2.216-.08M.013 599.908c2.665 9.624 5.291 18.867 8.936 28.86 2.748 7.533 7.591 14.932 12.271 22.095 4.69 7.169 9.533 14.58 12.28 22.12a34.15 34.15 0 0 0 1.303-4.8l.601-3.93c.801-7.257.13-15.254-.442-20.633-.498-4.62-1.22-8.628-2.207-12.255a107.243 107.243 0 0 0-4.003-11.866C21.72 602.069 10.81 587.834.013 574.194v25.714z" fill="#B7D3E0" mask="url(#d)"/><path d="M.013 638.748c3.676-.618 7.46-1.688 11.543-3.264l1.68-.821c2.497-1.292 6.674-3.447 7.584-2.577-.723-.688-1.515-1.116-2.432-1.31l-1.984-.075-3.177.732-1.938.506c-3.39.72-6.962.886-10.412 1.052 0 0-.391.02-.864.04v5.717zm0-89.947c9.01 7.568 18.286 15.415 26.15 24.696-10.829-12.78-18.5-28.427-25.919-43.56a51.908 51.908 0 0 1-.23-.47v19.334z" fill="#B7D3E0" mask="url(#d)"/></g></g></g></svg>