<svg width="230" height="62" viewBox="0 0 230 62" xmlns="http://www.w3.org/2000/svg"><title>ikuta-logo-process copy</title><g fill="none" fill-rule="evenodd"><g transform="translate(19.095)"><path d="M179.333 61.364c16.946 0 30.71-13.751 30.71-30.682C210.044 13.752 196.28 0 179.334 0c-16.947 0-30.711 13.751-30.711 30.682 0 17.01 13.764 30.682 30.71 30.682" fill="#63B1CB"/><path d="M179.333 58.82c15.514 0 28.085-12.558 28.085-28.058s-12.57-28.06-28.085-28.06-28.086 12.56-28.086 28.06c0 15.5 12.571 28.059 28.086 28.059" fill="#005B70"/><ellipse stroke="#B6AF12" stroke-width="2.691" cx="179.333" cy="30.762" rx="28.085" ry="28.059"/><path d="M193.733 34.974c4.376.398 3.899-.556 2.07-2.066-1.751-1.59-3.422-.16-4.934.238-.557.16-4.455.557-9.15.954v-.08c.08-1.51-1.113-2.225-4.057-2.543a33.378 33.378 0 0 0 1.91-.477c3.818-1.192 5.171-2.544 5.49-3.18.158-.238 0-.635-.399-1.192 2.308-.636 5.968-2.066 7.4-5.723.318-.874-1.353-1.67-3.58-2.384 1.59-.08 3.42-.16 4.932-.16 2.467 0 1.75-.715.875-1.43-.875-.716-1.67-.795-2.386-.318-.557.397-3.66.795-5.57.954.637-.875.875-1.51.796-1.988-.239-1.033-2.228-2.861-6.524-4.053 0 0 .557.874.477 1.748-.159 1.431-.716 4.85-5.012 10.334-.08-.239-.239-.477-.478-.716-.954-.954-1.75-1.987-2.387-2.543.717-.08 1.433-.16 2.308-.239 2.625-.238 3.023-.159 2.625-.795-.397-.556-1.114-1.271-1.67-.715-.398.397-2.308.556-3.82.636 1.035-1.43 1.592-2.544 1.592-2.862.159-.953-2.626-3.02-6.524-3.815 0 0 .795.795.875 1.351.08.557.159 5.962-6.126 12.798 0 0 4.853-1.352 7.478-4.213.478-.557.955-1.113 1.433-1.59 0 .636.159 1.43.397 2.385.478 1.907 2.308 5.325 3.342 4.133.716-.795 1.273-1.987 1.114-3.1 1.432-.397 4.296-1.272 6.524-3.259.955-.874 1.75-1.59 2.387-2.226.557-.079 1.193-.159 1.83-.159.08.318.159.716.08 1.034-.08.477-1.274 3.338-3.422 6.12-.875-.636-2.148-1.35-4.137-2.066 0 0 .239.477 0 1.112-.477 1.193-3.5 4.293-12.014 8.347 0 0 4.296-.477 8.115-1.193.16.239.319.477.398.795 0 .239.08.954-.159 1.987-5.728.477-10.9.875-11.298.795-.795-.08-2.068-.795-2.068-.795.238.318.636 3.895 3.262 2.941 1.114-.397 5.092-1.033 9.706-1.51-.477 1.67-1.511 3.895-3.341 6.677-2.705 4.054-6.604 5.644-6.604 5.644s5.251-.239 8.752-3.1c2.864-2.305 4.774-4.77 5.967-6.995a38.732 38.732 0 0 0 1.512 3.1c1.352 2.623 3.262 5.802 6.205 6.518 1.035.238 2.467.159 3.74-.16 2.625-.715 4.058-1.589 4.058-1.589s-1.91.715-3.263 1.033c1.592-.636 3.103-1.51 3.103-1.51s-4.694-1.59-7.638-3.259c-1.909-1.113-4.853-4.61-6.603-6.836 5.171-.795 9.945-1.033 12.411-.795" fill="#E3F3F0"/><path d="M120.457 28.456c0-.556 0-.715-.08-.556.16-.318.319-.477.398-.715.239-.875.398-1.51.477-1.988.16-.397.319-.635.478-.874.08-.556.159-1.033.159-1.351.239-.557.398-.954.557-1.272.16-.636.239-1.113.318-1.43.16-.24.318-.478.398-.557.875-1.749 1.75-3.418 2.466-5.087.319.795.557 1.43.637 1.828.398.954.716 1.67.955 2.146.477 1.59.875 2.862 1.114 3.656 1.511 4.054 2.227 6.12 2.227 6.12h-10.104v.08zm26.096 15.341c-.636-.238-1.034-.397-1.352-.476-1.035-.398-1.671-.716-1.75-.954-.478-.954-.876-1.59-1.035-1.908-.637-1.51-1.034-2.703-1.353-3.577-.08-.318-.08-.477-.08-.715a13.255 13.255 0 0 0-.954-1.51c-.636-1.51-1.114-2.544-1.352-3.1-.08-.319-.16-.636-.16-.795-.318-1.034-.556-1.908-.556-2.465-.876-2.543-1.592-4.53-1.99-5.882-.636-1.43-1.113-2.543-1.432-3.259-.238-.953-.318-1.43-.238-1.59-.557-.794-.955-1.748-1.273-2.702-.16-.795-.319-1.351-.319-1.749-1.352-3.338-2.307-5.802-2.864-7.392-1.591-.159-2.864-.159-3.66-.238-.875-.08-1.352 0-1.432.159a9.083 9.083 0 0 0-.477 1.112c-.557 1.272-.875 2.147-1.114 2.782a23.217 23.217 0 0 0-.477 1.59c-.716 1.59-1.194 2.782-1.353 3.577-.557 1.67-1.034 2.941-1.352 3.816-.08.397-.08.635-.08.874.08-.318.16-.477.239-.557v.08c0 .318-.08.954-.319 1.749-.238.874-.397 1.35-.557 1.35-.08 0-.159-.158-.238-.476-.16.159-.239.318-.318.397a202.766 202.766 0 0 1-2.07 6.28 63.185 63.185 0 0 1-1.59 4.292c-.637 1.987-1.114 3.498-1.353 4.452-.716 1.59-1.273 2.782-1.591 3.497-.318.715-.796 1.272-1.273 1.59a7.011 7.011 0 0 0-1.114 1.192c-.636.477-.955.795-.955 1.033 0 .08 0 .16.08.239 1.432.159 2.228.238 2.228.238.954-.159 1.75-.238 2.227-.397 2.228 0 3.978.08 5.172.159.795-.16 1.352-.239 1.75-.398-.08-.159-.238-.397-.398-.715-.238-.08-.397-.08-.477-.159-.398-.159-.875-.477-1.432-.874-.557-.477-.875-.795-.955-.954-.159-.318-.159-1.034 0-1.987.239-1.352.318-1.988.318-1.829 0-.238.24-1.112.716-2.543.398-.875.637-1.51.876-1.987.397-.875.875-1.272 1.352-1.272l6.524-.08c3.024-.159 4.694-.238 5.092-.238.239 0 .398.08.398.159 0 .397.16 1.033.477 1.908.398 1.033.637 1.59.716 1.748.557 2.385.955 4.134 1.194 5.326.08.238.08.556-.08 1.033a2.17 2.17 0 0 1-.716.954c-.716.239-1.352.398-1.75.398-.08.397-.16.953-.08 1.59.319.317.955.476 1.83.238 1.671-.318 3.978-.477 7.002-.477h2.466c-.08 0 .478.08 1.671.159.716.08 1.273 0 1.67-.16v-.556h-.079zm-36.36-37.994c-.477.08-.954.159-1.432.159-1.273.079-2.546.159-3.898.397-1.273.238-1.83.318-1.83.318H97.94c.08 0-1.114-.08-3.74-.318-2.625-.238-4.535-.318-5.808-.318-4.376 0-6.285 0-5.649.08l-.954 1.271c-.16.716-.319 2.146-.637 4.293-.238 1.748-.477 3.1-.716 3.894-.08.16 0 .398 0 .795.08.398.16.716.16.795.715 0 1.193-.159 1.352-.556.398-.716.795-1.987 1.273-3.816.08-.397.557-.953 1.432-1.59.875-.635 1.591-.953 2.228-.953h5.728c.318 2.861.478 4.451.478 4.69.397 1.271.795 2.225 1.034 2.94-.08.16-.16.24-.239.24h-.795v11.048c-.16 3.1-.24 6.04-.319 8.902-.159 1.59-.318 2.544-.398 2.782-.477.795-1.273 1.51-2.386 2.067a24.404 24.404 0 0 1-2.785.874v.477c0 .239.08.398.239.398h17.503c.478-.557.716-1.034.716-1.351-.954-.239-1.91-.398-2.864-.636-1.193-.318-1.83-.954-2.069-1.988-.397-2.146-.795-3.735-.954-4.769-.08-1.987 0-3.418.08-4.451-.24-2.862-.398-4.292-.398-4.213.397-4.372.477-7.79.238-10.254-.238-2.464-.238-4.372.08-5.723.159-.477.477-.874 1.034-1.033 1.591-.318 2.785-.477 3.66-.557 1.67-.397 2.785-.397 3.182-.08 1.035.716 1.671 1.67 1.83 3.021.319 2.306.478 3.498.478 3.657.08 0 .318 0 .557-.08.238-.08.477-.08.557-.08V8.983c.159-1.113.318-1.987.397-2.782-.238-.318-.636-.477-1.273-.397zM76.618 6.2c-.08 0-.238 0-.477-.08h-.478c-1.909.16-3.262.16-4.057.08-.398 0-.796.08-1.035.08-1.432-.318-2.864-.318-4.375-.16-.716.08-1.035.16-.955.16 0 .317.08.556.159.794.636.16 1.034.239 1.273.239 1.353.397 2.148.874 2.307 1.51.478 1.59.796 3.02.955 4.213l-.08 14.546c.16 1.828.16 3.259 0 4.372-.238 1.59-.397 3.02-.556 4.133-.319 1.351-1.114 2.623-2.308 3.816-1.273 1.35-2.466 1.987-3.58 1.987h-4.137c-.716 0-1.353 0-1.91-.08-.636-.08-1.352-.397-2.068-.954-.557-.397-1.114-.874-1.671-1.271-.716-.795-1.194-1.431-1.512-1.829a17.64 17.64 0 0 1-1.034-1.51c.08-.318.08-.636 0-.795-.16-.397-.318-.715-.398-.954v-1.112c-.08-1.352-.16-2.067-.16-2.067-.158-.318-.238-.556-.397-.715-.239-1.51-.318-2.465-.239-2.941.16-1.431.24-2.147.24-2.306-.08-.159-.08-.318-.16-.397.16-1.51.16-2.464.16-2.703-.16-1.748-.32-2.543-.32-2.305.16-1.272.24-2.146.16-2.464.16-1.033.239-1.59.239-1.59-.16-.715-.319-1.112-.319-1.033.478-2.146.955-4.213 1.353-6.04.08-.24.239-.478.636-.796.24-.159.478-.238.637-.318.239-.159.477-.318.557-.397 1.273-.239 1.91-.477 1.91-.795 0-.159-.08-.318-.24-.556-1.988.159-3.42.159-4.455.159-.238 0-.636.079-1.193.158-.478.08-.796.16-.875.16H45.19c-2.068 0-3.898-.16-5.49-.398-.716-.08-1.034.08-1.034.397 0 .08 0 .239.08.318 1.75.398 2.705.716 2.943.875.796.477 1.194 1.272 1.353 2.464.398 5.326.716 9.3.875 12.002l.239 9.777c.159 5.167 2.069 8.823 5.808 10.97.557.318.955.556 1.193.556.637.08 1.114.159 1.512.159a15.17 15.17 0 0 1 2.466 1.113c.876.159 1.592.238 2.07.238 1.352.318 1.829.398 1.59.398h2.308s.159.08.397.159c.24.08.398.159.478.08.636-.319 1.034-.478 1.352-.716 1.432-.398 2.308-.477 2.626-.239 1.034-.715 2.148-1.51 3.182-2.225 1.353-.954 2.228-1.75 2.705-2.385.398-.556.876-1.51 1.512-2.782.557-1.272.955-2.305 1.034-2.941.319-2.146.478-3.736.557-4.849-.08.398-.08-.397-.08-2.384 0-.08 0-.16.08-.239.08-.08.08-.159.08-.238 0-2.623-.08-4.77-.239-6.439-.08-.397-.08-.715 0-.795 0-.08.08-.238.16-.477.079-.238.079-.397.079-.476v-2.385s-.16-.954-.398-2.862c-.08-.318 0-1.033.08-2.146.08-.238.159-.397.238-.477.16-1.192.557-2.066 1.194-2.702.557-.239 1.034-.398 1.352-.318.796-.239 1.353-.318 1.75-.398.24-.08.399-.477.399-1.192-1.83.159-2.785.318-3.024.318zM39.781 43.32c-.477 0-.875-.079-1.114-.079-1.034-.397-1.75-.715-2.228-.954-.238-.159-.318-.318-.397-.397-1.353-1.113-2.387-2.067-3.103-2.862-1.83-1.51-2.785-2.305-2.944-2.464-.398-.477-.637-.874-.875-1.192-.478-.318-.875-.477-1.194-.636-.477-.318-.875-.715-1.273-1.113-1.114-1.272-1.989-2.067-2.466-2.464-.637-.397-1.114-.715-1.432-.874-1.432-1.352-2.467-2.306-3.183-3.02-.159-.24-.159-.398-.238-.478-1.035-1.033-1.99-2.066-3.024-2.94-.318-.24-.557-.319-.716-.398.716-.716 1.194-1.272 1.591-1.67.478-.635.796-1.112 1.035-1.43 2.148-2.226 3.42-3.498 3.819-3.816.238-.159.477-.238.636-.318 2.626-2.782 4.615-4.928 6.047-6.518.318-.159.477-.318.636-.397.876-.795 1.512-1.351 1.83-1.67 1.194-.635 2.387-.874 3.74-.715.08-.397.159-.874.159-1.271-2.705.08-4.774.159-6.286.238 0 0-.397-.08-1.193-.159-.318 0-.636.08-.796.16-2.466-.24-4.137-.24-5.092 0 0 .555.08.873.16.953.556.08 1.034.159 1.59.238.637.08 1.194.398 1.592.875.398.477.477.954.16 1.59a17.7 17.7 0 0 1-1.115 1.907c-.557.716-.954 1.192-1.273 1.51-.954 1.113-2.227 2.385-3.819 3.975a14.63 14.63 0 0 1-.954.715c-.716.875-2.149 2.305-4.217 4.372-.557.636-1.035 1.113-1.353 1.51-.477.398-.716.557-.795.636-.16-1.192-.16-2.067-.08-2.702-.239-1.272-.318-1.908-.318-1.908.08-.795.08-1.43.159-1.908-.16-.397-.16-.795-.16-1.113 0-.08.08-.159.16-.318.16-.159.16-.238.16-.238 0-.239-.08-.636-.24-1.033-.08-.398-.159-.636-.159-.716.239-1.59.478-2.782.637-3.577.159-1.033.238-1.59.318-1.669.477-.715 1.034-1.192 1.83-1.51.636-.16 1.193-.239 1.83-.398v-.556c0-.239-.08-.397-.239-.636-.557.08-2.068.08-4.535.08-.318 0-.636 0-1.034.079-.398.08-.637.08-.637.08H6.922l-4.933-.239c-.875-.08-1.353.239-1.353.795a.6.6 0 0 0 .08.318c1.432.159 2.466.397 3.023.715.398.239.796.716 1.035 1.67.238.715.318 1.271.318 1.828v3.895c0 .08-.08.238-.16.397v2.464c.32.398.399.874.32 1.272-.32 1.43-.32 2.543-.08 3.418 0-.16-.08.477-.08 1.749v3.02c0 .398.08.715.318 1.033.239.239.318.398.318.318-.477.716-.716 1.193-.795 1.431 0 1.908.08 3.339.159 4.292-.16 1.908-.239 3.26-.398 4.213-.159 1.352-.318 2.226-.477 2.544a3.674 3.674 0 0 1-1.512 1.59c-.239.159-.716.238-1.352.318-.478.079-.796.238-.876.397v.238c0 .398.24.636.716.716a3 3 0 0 0 1.194 0h3.978c-.08 0 .398-.08 1.432-.16.955-.079 1.591-.158 2.069-.079.159 0 .477.08 1.034.16.477.079.796.158.796.158h2.784c.955-.159 1.592-.159 1.99-.238.158-.08.158-.398.158-.954-.795-.318-1.352-.477-1.83-.556-1.113-.239-1.989-.795-2.625-1.908-.08-.557-.16-1.033-.16-1.351-.158-.795-.317-1.352-.397-1.75-.16-1.191-.239-2.145-.318-2.781 0-1.351.08-2.385.08-3.1-.08-1.192-.16-2.146-.24-2.703-.079-1.113 0-1.748.24-1.907.636.477 1.193.794 1.511 1.112.557.477 1.034.795 1.353 1.034.477.636.875 1.113 1.034 1.43.477.318.875.477 1.193.557.239.238.319.397.398.556.398.239.796.398 1.034.557.08-.239.16-.398.24-.557-.24-.08-.32-.159-.32-.318.24 0 .478.08.717.398l.477.477c.796.238 1.273.556 1.512.954-.477-.16-.716-.16-.796-.239l-.716-.238s-.159.08-.477.159c.716.636 1.353 1.112 1.91 1.43l1.75 1.75c1.91 1.589 3.421 2.94 4.455 3.973.478.398.716.716.716.875.557.556.955.954 1.273 1.192a.6.6 0 0 1 .08.318c0 .318-.477.477-1.353.557-.238.317-.159.715.08 1.112l4.774-.08h2.864l4.774.08c.318-.397.159-.795-.08-1.112z" fill="#63B1CB"/></g><path d="M22.277 60.092h.16c.397-.08.716-.08.954-.477.16-.318.16-.953.16-1.271v-5.088c0-.953.079-1.669-1.035-1.748h-.16v-.398h4.138c1.353 0 2.944.08 4.058.954 1.193.874 1.83 2.385 1.83 3.895 0 1.43-.637 2.862-1.75 3.736-1.194.874-2.706.954-4.138.954h-4.217v-.557zm2.626-1.51c0 .318 0 .874.318 1.113.239.238 1.114.238 1.432.238 2.626 0 3.978-1.59 3.978-4.212 0-1.113-.238-2.306-1.034-3.1-.716-.716-1.91-1.034-2.944-1.034-.398 0-1.273.08-1.511.398-.16.238-.16.794-.16 1.112v5.485h-.08zm10.104-2.067v.716c0 .636.239 1.43.637 1.907.398.557 1.114.875 1.75.875.955 0 1.591-.477 2.069-1.272l.477.238c-.477 1.113-1.67 1.67-2.864 1.67-.955 0-1.75-.239-2.467-.875-.716-.715-1.034-1.669-1.034-2.623 0-1.987 1.273-3.497 3.342-3.497 1.67 0 3.023 1.113 3.023 2.861h-4.933zm3.342-.556c0-1.033-.637-1.749-1.591-1.749-.955 0-1.671.795-1.75 1.749h3.34zm9.786 2.861c0 .716.16 1.272.955 1.352h.159v.397h-3.74v-.397h.16c.875-.08 1.034-.557 1.034-1.351v-2.862a2.2 2.2 0 0 0-.239-1.033 1.244 1.244 0 0 0-.955-.477c-.954 0-1.83.556-2.466 1.113v3.259c0 .794.16 1.271 1.034 1.35h.16v.398h-3.74v-.397h.16c.954-.08 1.113-.477 1.113-1.351v-2.862c0-.795-.16-1.272-1.034-1.351h-.239v-.398l2.148-.318h.478v1.113c.875-.795 1.83-1.272 2.943-1.272.557 0 1.114.16 1.512.557.477.397.557.874.557 1.43v3.1zm6.047-4.61h-1.99v3.895c0 .795 0 1.908 1.035 1.908.477 0 .875-.318 1.193-.636l.319.318c-.478.636-1.194.874-1.99.874-.477 0-.954-.08-1.352-.318-.557-.397-.636-.874-.636-1.51v-4.53h-1.194v-.478c1.591-.08 1.91-1.192 1.91-2.543h.636v2.543h1.99v.477h.079zm8.752 5.962c-.319.318-.955.477-1.433.477-.716 0-1.273-.318-1.511-1.034-.796.636-1.591 1.034-2.626 1.034-.955 0-2.148-.557-2.148-1.67 0-.953.557-1.43 1.353-1.748.716-.318 1.511-.477 2.307-.557l1.034-.08v-1.032c0-.398-.08-.795-.477-1.034-.398-.238-.875-.318-1.273-.318-.398 0-1.353.239-1.353.716v.159c0 .477-.159.874-.716.874a.627.627 0 0 1-.636-.636c0-.556.636-1.113 1.114-1.272a5.544 5.544 0 0 1 1.989-.397c.557 0 1.352.159 1.83.477.716.397.795.954.795 1.748v2.703c0 .556.08 1.43.796 1.43a.723.723 0 0 0 .557-.238l.398.398zm-2.944-3.1c-1.035.08-3.342.397-3.342 1.749 0 .715.637 1.112 1.273 1.112.716 0 1.512-.477 2.069-.954v-1.907zm5.649 1.669c0 .715.08 1.272.954 1.351h.16v.398h-3.66v-.398h.159c.875-.08 1.034-.477 1.034-1.351v-5.564c0-.954.08-1.67-1.034-1.749h-.16v-.397c.717-.08 1.353-.16 1.99-.477h.557v8.187zm7.478-5.485c0-.953.08-1.669-1.034-1.748h-.239v-.398h3.899v.398h-.16c-.397 0-.795.08-.954.477-.159.318-.159.953-.159 1.271v1.908h5.012v-1.908c0-.953.08-1.669-1.034-1.748h-.239v-.398h3.899v.398h-.16c-.397.08-.795.08-.954.477-.159.318-.159.953-.159 1.271v5.167c0 .954-.08 1.67 1.034 1.749h.239v.397h-3.899v-.397h.16c.397 0 .795-.08.954-.477.16-.318.16-.954.16-1.272V55.8H74.47v2.623c0 .954-.08 1.67 1.034 1.749h.239v.397h-3.899v-.397h.16c.397-.08.795-.08.954-.477.16-.318.16-.954.16-1.272v-5.167zm11.457 3.259v.716c0 .636.24 1.43.637 1.907.398.557 1.114.875 1.75.875.955 0 1.592-.477 2.069-1.272l.477.238c-.477 1.113-1.67 1.67-2.864 1.67-.955 0-1.75-.239-2.466-.875-.716-.715-1.035-1.669-1.035-2.623 0-1.987 1.273-3.497 3.342-3.497 1.67 0 3.023 1.113 3.023 2.861h-4.933zm3.342-.556c0-1.033-.636-1.749-1.591-1.749s-1.671.795-1.75 1.749h3.341zm10.104 4.213c-.318.318-.954.477-1.432.477-.716 0-1.273-.318-1.511-1.034-.796.636-1.592 1.034-2.626 1.034-.955 0-2.148-.557-2.148-1.67 0-.953.557-1.43 1.352-1.748.716-.318 1.512-.477 2.308-.557l1.034-.08v-1.032c0-.398-.08-.795-.477-1.034-.398-.238-.876-.318-1.273-.318-.398 0-1.353.239-1.353.716v.159c0 .477-.159.874-.716.874a.627.627 0 0 1-.636-.636c0-.556.636-1.113 1.113-1.272a5.544 5.544 0 0 1 1.99-.397c.556 0 1.352.159 1.83.477.715.397.795.954.795 1.748v2.703c0 .556.08 1.43.796 1.43a.725.725 0 0 0 .557-.238l.397.398zm-2.943-3.1c-1.035.08-3.342.397-3.342 1.749 0 .715.636 1.112 1.273 1.112.716 0 1.512-.477 2.069-.954v-1.907zm5.648 1.669c0 .715.08 1.272.955 1.351h.16v.398h-3.66v-.398h.159c.875-.08 1.034-.477 1.034-1.351v-5.564c0-.954.08-1.67-1.034-1.749h-.16v-.397c.717-.08 1.353-.16 1.99-.477h.556v8.187zm6.127-4.531h-1.99v3.895c0 .795 0 1.908 1.035 1.908.477 0 .875-.318 1.193-.636l.319.318c-.478.636-1.194.874-1.99.874-.477 0-.954-.08-1.352-.318-.557-.397-.636-.874-.636-1.51v-4.53h-1.194v-.478c1.591-.08 1.91-1.192 1.91-2.543h.636v2.543h1.99v.477h.079zm8.354 4.531c0 .795.08 1.272.955 1.351h.159v.398h-3.74v-.398h.16c.954-.08 1.113-.477 1.113-1.351v-2.862c0-.397 0-.794-.238-1.112a1.469 1.469 0 0 0-.955-.398c-.796 0-1.91.557-2.467 1.113v3.259c0 .795.08 1.272.955 1.351h.16v.398h-3.74v-.398h.159c.955-.08 1.114-.477 1.114-1.351v-5.564c0-.954.08-1.67-1.034-1.749h-.16v-.397c.716-.08 1.353-.16 1.99-.477h.556v4.292c.796-.715 1.75-1.192 2.865-1.192.477 0 1.113.159 1.59.477.558.397.558 1.033.558 1.669v2.941zm15.276-4.213h-.478l-.08-.08c-.317-.635-.715-1.43-1.193-1.986a3.188 3.188 0 0 0-2.307-.954c-1.034 0-1.91.477-2.466 1.351-.557.874-.716 1.987-.716 3.02 0 .954.159 2.067.795 2.862.637.795 1.591 1.272 2.705 1.272 1.432 0 2.705-.875 3.421-2.067l.637.318c-.955 1.59-2.387 2.464-4.296 2.464-2.865 0-4.933-2.066-4.933-4.928 0-2.623 1.91-5.008 4.694-5.008 1.034 0 1.989.318 2.785 1.034l.318-.636h.477l.637 3.338zm2.784 1.987v.716c0 .636.239 1.43.637 1.907.398.557 1.114.875 1.75.875.955 0 1.591-.477 2.069-1.272l.477.238c-.477 1.113-1.67 1.67-2.864 1.67-.955 0-1.75-.239-2.466-.875-.717-.715-1.035-1.669-1.035-2.623 0-1.987 1.273-3.497 3.342-3.497 1.67 0 3.023 1.113 3.023 2.861h-4.933zm3.422-.556c0-1.033-.637-1.749-1.592-1.749-.954 0-1.67.795-1.75 1.749h3.342zm9.706 2.861c0 .716.16 1.272.955 1.352h.159v.397h-3.74v-.397h.16c.875-.08 1.034-.557 1.034-1.351v-2.862a2.2 2.2 0 0 0-.239-1.033 1.244 1.244 0 0 0-.954-.477c-.955 0-1.83.556-2.467 1.113v3.259c0 .794.16 1.271 1.034 1.35h.16v.398h-3.74v-.397h.16c.954-.08 1.113-.477 1.113-1.351v-2.862c0-.795-.159-1.272-1.034-1.351h-.239v-.398l2.148-.318h.478v1.113c.795-.795 1.83-1.272 2.943-1.272.557 0 1.114.16 1.512.557.478.397.557.874.557 1.43v3.1zm6.126-4.61h-1.989v3.895c0 .795 0 1.908 1.035 1.908.477 0 .875-.318 1.193-.636l.318.318c-.477.636-1.193.874-1.989.874-.477 0-.954-.08-1.352-.318-.557-.397-.637-.874-.637-1.51v-4.53h-1.114v-.478c1.592-.08 1.91-1.192 1.91-2.543h.636v2.543h1.99v.477zm2.546 2.305v.716c0 .636.239 1.43.637 1.907.398.557 1.114.875 1.75.875.955 0 1.591-.477 2.069-1.272l.477.238c-.477 1.113-1.67 1.67-2.864 1.67-.955 0-1.75-.239-2.466-.875-.717-.715-1.035-1.669-1.035-2.623 0-1.987 1.273-3.497 3.342-3.497 1.67 0 3.023 1.113 3.023 2.861h-4.933zm3.342-.556c0-1.033-.637-1.749-1.591-1.749-.955 0-1.671.795-1.75 1.749h3.341zm4.694 2.782c0 .795.16 1.272 1.034 1.351h.24v.398h-3.82v-.398h.16c.954-.08 1.034-.477 1.034-1.351v-2.862c0-.794-.16-1.271-1.035-1.35h-.238v-.398l2.148-.318h.477v1.033c.637-.636 1.432-1.192 2.307-1.192.478 0 1.035.159 1.035.715 0 .477-.319.716-.796.716-.636 0-.796-.477-1.273-.477-.477 0-1.034.397-1.352.795v3.338h.08z" fill="#005B70"/><path d="M14.321 3.18H5.808c-1.432 0-2.864 0-4.217-.16-.398-.079-1.034-.317-1.193.16-.16.317-.318 1.033-.239 1.35.08.398.796.557 1.114.716.557.239 1.114.477 1.512.954.795.954 1.034 2.305 1.59 3.338.637 1.193.558 2.465.717 3.736.08.716.318 1.272.477 1.908.16.715.08 1.43.08 2.146 0 3.02.159 6.041 0 9.062 0 .715-.08 1.43.08 2.146.079.318.159.636.159.954 0 .318-.16.636-.24 1.033-.238 1.43 0 2.941-.079 4.372 0 .715.08 1.43.08 2.146 0 .238-.16.556-.16.874 0 .318.16.557.24.875.238.636.238 1.351.238 2.066 0 .636.08 1.352 0 1.988-.08.635-.159 6.756-.08 7.312.08.636.08 2.544-.159 3.339-.556 1.749-1.432 4.372-1.59 4.69-.558 1.033-1.99 1.192-2.945 1.43-.477.16-.875.318-.954.875-.08.397-.08.954.238 1.192.398.397 1.035.239 1.592.239.716 0 1.432-.08 2.148-.08 1.432 0 2.784 0 4.217-.238.636-.08 1.352.08 1.989 0 .716-.08 1.352-.16 1.989-.08 1.432.16 2.784.08 4.216.16.557 0 1.035.158 1.273-.478.08-.238.16-.556.16-.795 0-.318.08-.477-.24-.556-1.113-.239-2.147-.557-3.022-1.272-.876-.715-1.353-1.828-1.592-2.941-.636-2.623-.557-5.405-.477-8.108.08-1.51 0-3.02.08-4.61 0-.715.079-1.43 0-2.146-.08-.715-.16-1.272 0-1.987.159-.716.079-1.51.079-2.226V29.65c0-3.1 0-6.12.08-9.22v-4.532c0-1.43.159-2.861.397-4.292.16-1.351.398-2.702.876-3.974.238-.557.477-1.113.795-1.51.398-.477 1.035-.636 1.591-.875.319-.08 1.114-.159 1.353-.477.16-.159.16-.556.239-.795.08-.318.159-.715.159-1.033-1.591-.159-2.864.159-4.058.238" fill="#63B1CB"/></g></svg>