<svg id="Layer_1" xmlns="http://www.w3.org/2000/svg" viewBox="0 0 403.2 144"><style>.Arched_x0020_Green{fill:url(#SVGID_1_);stroke:#fff;stroke-width:.25;stroke-miterlimit:1}.st0{fill:#63b1cb}.st1{fill:#005b70}.st2{fill:none;stroke:#b6af12;stroke-width:2.691}.st3{fill:#e3f3f0}</style><linearGradient id="SVGID_1_" gradientUnits="userSpaceOnUse" y1="144" x2=".707" y2="143.293"><stop offset="0" stop-color="#20ac4b"/><stop offset=".983" stop-color="#19361a"/></linearGradient><path class="st0" d="M310.4 103.2c21.3 0 38.6-17.3 38.6-38.6S331.7 26 310.4 26s-38.6 17.3-38.6 38.6c0 21.4 17.3 38.6 38.6 38.6"/><path class="st1" d="M310.4 100c19.5 0 35.3-15.8 35.3-35.3 0-19.5-15.8-35.3-35.3-35.3-19.5 0-35.3 15.8-35.3 35.3 0 19.5 15.8 35.3 35.3 35.3"/><circle class="st2" cx="310.4" cy="64.7" r="35.3"/><path class="st3" d="M328.5 70c5.5.5 4.9-.7 2.6-2.6-2.2-2-4.3-.2-6.2.3-.7.2-5.6.7-11.5 1.2v-.1c.1-1.9-1.4-2.8-5.1-3.2.9-.2 1.7-.4 2.4-.6 4.8-1.5 6.5-3.2 6.9-4 .2-.3 0-.8-.5-1.5 2.9-.8 7.5-2.6 9.3-7.2.4-1.1-1.7-2.1-4.5-3 2-.1 4.3-.2 6.2-.2 3.1 0 2.2-.9 1.1-1.8s-2.1-1-3-.4c-.7.5-4.6 1-7 1.2.8-1.1 1.1-1.9 1-2.5-.3-1.3-2.8-3.6-8.2-5.1 0 0 .7 1.1.6 2.2-.2 1.8-.9 6.1-6.3 13-.1-.3-.3-.6-.6-.9-1.2-1.2-2.2-2.5-3-3.2.9-.1 1.8-.2 2.9-.3 3.3-.3 3.8-.2 3.3-1-.5-.7-1.4-1.6-2.1-.9-.5.5-2.9.7-4.8.8 1.3-1.8 2-3.2 2-3.6.2-1.2-3.3-3.8-8.2-4.8 0 0 1 1 1.1 1.7.1.7.2 7.5-7.7 16.1 0 0 6.1-1.7 9.4-5.3.6-.7 1.2-1.4 1.8-2 0 .8.2 1.8.5 3 .6 2.4 2.9 6.7 4.2 5.2.9-1 1.6-2.5 1.4-3.9 1.8-.5 5.4-1.6 8.2-4.1 1.2-1.1 2.2-2 3-2.8.7-.1 1.5-.2 2.3-.2.1.4.2.9.1 1.3-.1.6-1.6 4.2-4.3 7.7-1.1-.8-2.7-1.7-5.2-2.6 0 0 .3.6 0 1.4-.6 1.5-4.4 5.4-15.1 10.5 0 0 5.4-.6 10.2-1.5.2.3.4.6.5 1 0 .3.1 1.2-.2 2.5-7.2.6-13.7 1.1-14.2 1-1-.1-2.6-1-2.6-1 .3.4.8 4.9 4.1 3.7 1.4-.5 6.4-1.3 12.2-1.9-.6 2.1-1.9 4.9-4.2 8.4-3.4 5.1-8.3 7.1-8.3 7.1s6.6-.3 11-3.9c3.6-2.9 6-6 7.5-8.8.7 1.6 1.4 3 1.9 3.9 1.7 3.3 4.1 7.3 7.8 8.2 1.3.3 3.1.2 4.7-.2 3.3-.9 5.1-2 5.1-2s-2.4.9-4.1 1.3c2-.8 3.9-1.9 3.9-1.9s-5.9-2-9.6-4.1c-2.4-1.4-6.1-5.8-8.3-8.6 6.5-1 12.5-1.3 15.6-1"/><path class="st0" d="M236.4 61.8c0-.7 0-.9-.1-.7.2-.4.4-.6.5-.9.3-1.1.5-1.9.6-2.5.2-.5.4-.8.6-1.1.1-.7.2-1.3.2-1.7.3-.7.5-1.2.7-1.6.2-.8.3-1.4.4-1.8.2-.3.4-.6.5-.7 1.1-2.2 2.2-4.3 3.1-6.4.4 1 .7 1.8.8 2.3.5 1.2.9 2.1 1.2 2.7.6 2 1.1 3.6 1.4 4.6 1.9 5.1 2.8 7.7 2.8 7.7h-12.7zm32.8 19.3c-.8-.3-1.3-.5-1.7-.6-1.3-.5-2.1-.9-2.2-1.2-.6-1.2-1.1-2-1.3-2.4-.8-1.9-1.3-3.4-1.7-4.5-.1-.4-.1-.6-.1-.9-.5-.9-.9-1.5-1.2-1.9-.8-1.9-1.4-3.2-1.7-3.9-.1-.4-.2-.8-.2-1-.4-1.3-.7-2.4-.7-3.1-1.1-3.2-2-5.7-2.5-7.4-.8-1.8-1.4-3.2-1.8-4.1-.3-1.2-.4-1.8-.3-2-.7-1-1.2-2.2-1.6-3.4-.2-1-.4-1.7-.4-2.2-1.7-4.2-2.9-7.3-3.6-9.3-2-.2-3.6-.2-4.6-.3-1.1-.1-1.7 0-1.8.2-.3.6-.5 1.1-.6 1.4-.7 1.6-1.1 2.7-1.4 3.5-.3.9-.5 1.6-.6 2-.9 2-1.5 3.5-1.7 4.5-.7 2.1-1.3 3.7-1.7 4.8-.1.5-.1.8-.1 1.1.1-.4.2-.6.3-.7v.1c0 .4-.1 1.2-.4 2.2-.3 1.1-.5 1.7-.7 1.7-.1 0-.2-.2-.3-.6-.2.2-.3.4-.4.5-1.1 3.5-2 6.2-2.6 7.9-.8 2.4-1.5 4.2-2 5.4-.8 2.5-1.4 4.4-1.7 5.6-.9 2-1.6 3.5-2 4.4-.4.9-1 1.6-1.6 2-.7.6-1.1 1.1-1.4 1.5-.8.6-1.2 1-1.2 1.3 0 .1 0 .2.1.3 1.8.2 2.8.3 2.8.3 1.2-.2 2.2-.3 2.8-.5 2.8 0 5 .1 6.5.2 1-.2 1.7-.3 2.2-.5-.1-.2-.3-.5-.5-.9-.3-.1-.5-.1-.6-.2-.5-.2-1.1-.6-1.8-1.1-.7-.6-1.1-1-1.2-1.2-.2-.4-.2-1.3 0-2.5.3-1.7.4-2.5.4-2.3 0-.3.3-1.4.9-3.2.5-1.1.8-1.9 1.1-2.5.5-1.1 1.1-1.6 1.7-1.6l8.2-.1c3.8-.2 5.9-.3 6.4-.3.3 0 .5.1.5.2 0 .5.2 1.3.6 2.4.5 1.3.8 2 .9 2.2.7 3 1.2 5.2 1.5 6.7.1.3.1.7-.1 1.3-.2.5-.5.9-.9 1.2-.9.3-1.7.5-2.2.5-.1.5-.2 1.2-.1 2 .4.4 1.2.6 2.3.3 2.1-.4 5-.6 8.8-.6h3.1c-.1 0 .6.1 2.1.2.9.1 1.6 0 2.1-.2v-.7zm-45.7-47.8c-.6.1-1.2.2-1.8.2-1.6.1-3.2.2-4.9.5-1.6.3-2.3.4-2.3.4h-6.4c.1 0-1.4-.1-4.7-.4-3.3-.3-5.7-.4-7.3-.4-5.5 0-7.9 0-7.1.1l-1.2 1.6c-.2.9-.4 2.7-.8 5.4-.3 2.2-.6 3.9-.9 4.9-.1.2 0 .5 0 1 .1.5.2.9.2 1 .9 0 1.5-.2 1.7-.7.5-.9 1-2.5 1.6-4.8.1-.5.7-1.2 1.8-2s2-1.2 2.8-1.2h7.2c.4 3.6.6 5.6.6 5.9.5 1.6 1 2.8 1.3 3.7-.1.2-.2.3-.3.3h-1v13.9c-.2 3.9-.3 7.6-.4 11.2-.2 2-.4 3.2-.5 3.5-.6 1-1.6 1.9-3 2.6-1.6.6-2.7.9-3.5 1.1v.6c0 .3.1.5.3.5h22c.6-.7.9-1.3.9-1.7-1.2-.3-2.4-.5-3.6-.8-1.5-.4-2.3-1.2-2.6-2.5-.5-2.7-1-4.7-1.2-6-.1-2.5 0-4.3.1-5.6-.3-3.6-.5-5.4-.5-5.3.5-5.5.6-9.8.3-12.9-.3-3.1-.3-5.5.1-7.2.2-.6.6-1.1 1.3-1.3 2-.4 3.5-.6 4.6-.7 2.1-.5 3.5-.5 4-.1 1.3.9 2.1 2.1 2.3 3.8.4 2.9.6 4.4.6 4.6.1 0 .4 0 .7-.1.3-.1.6-.1.7-.1v-9c.2-1.4.4-2.5.5-3.5-.3-.4-.8-.6-1.6-.5m-42.2.5c-.1 0-.3 0-.6-.1h-.6c-2.4.2-4.1.2-5.1.1-.5 0-1 .1-1.3.1-1.8-.4-3.6-.4-5.5-.2-.9.1-1.3.2-1.2.2 0 .4.1.7.2 1 .8.2 1.3.3 1.6.3 1.7.5 2.7 1.1 2.9 1.9.6 2 1 3.8 1.2 5.3l-.1 18.3c.2 2.3.2 4.1 0 5.5-.3 2-.5 3.8-.7 5.2-.4 1.7-1.4 3.3-2.9 4.8-1.6 1.7-3.1 2.5-4.5 2.5h-5.2c-.9 0-1.7 0-2.4-.1-.8-.1-1.7-.5-2.6-1.2-.7-.5-1.4-1.1-2.1-1.6-.9-1-1.5-1.8-1.9-2.3-.6-.8-1-1.4-1.3-1.9.1-.4.1-.8 0-1-.2-.5-.4-.9-.5-1.2V68c-.1-1.7-.2-2.6-.2-2.6-.2-.4-.3-.7-.5-.9-.3-1.9-.4-3.1-.3-3.7.2-1.8.3-2.7.3-2.9-.1-.2-.1-.4-.2-.5.2-1.9.2-3.1.2-3.4-.2-2.2-.4-3.2-.4-2.9.2-1.6.3-2.7.2-3.1.2-1.3.3-2 .3-2-.2-.9-.4-1.4-.4-1.3.6-2.7 1.2-5.3 1.7-7.6.1-.3.3-.6.8-1 .3-.2.6-.3.8-.4.3-.2.6-.4.7-.5 1.6-.3 2.4-.6 2.4-1 0-.2-.1-.4-.3-.7-2.5.2-4.3.2-5.6.2-.3 0-.8.1-1.5.2-.6.1-1 .2-1.1.2h-3.8c-2.6 0-4.9-.2-6.9-.5-.9-.1-1.3.1-1.3.5 0 .1 0 .3.1.4 2.2.5 3.4.9 3.7 1.1 1 .6 1.5 1.6 1.7 3.1.5 6.7.9 11.7 1.1 15.1l.3 12.3c.2 6.5 2.6 11.1 7.3 13.8.7.4 1.2.7 1.5.7.8.1 1.4.2 1.9.2 1.4.5 2.4 1 3.1 1.4 1.1.2 2 .3 2.6.3 1.7.4 2.3.5 2 .5h2.9s.2.1.5.2.5.2.6.1c.8-.4 1.3-.6 1.7-.9 1.8-.5 2.9-.6 3.3-.3 1.3-.9 2.7-1.9 4-2.8 1.7-1.2 2.8-2.2 3.4-3 .5-.7 1.1-1.9 1.9-3.5.7-1.6 1.2-2.9 1.3-3.7.4-2.7.6-4.7.7-6.1-.1.5-.1-.5-.1-3 0-.1 0-.2.1-.3.1-.1.1-.2.1-.3 0-3.3-.1-6-.3-8.1-.1-.5-.1-.9 0-1 0-.1.1-.3.2-.6s.1-.5.1-.6v-3s-.2-1.2-.5-3.6c-.1-.4 0-1.3.1-2.7.1-.3.2-.5.3-.6.2-1.5.7-2.6 1.5-3.4.7-.3 1.3-.5 1.7-.4 1-.3 1.7-.4 2.2-.5.3-.1.5-.6.5-1.5-2.3.2-3.5.4-3.8.4M135 80.5c-.6 0-1.1-.1-1.4-.1-1.3-.5-2.2-.9-2.8-1.2-.3-.2-.4-.4-.5-.5-1.7-1.4-3-2.6-3.9-3.6-2.3-1.9-3.5-2.9-3.7-3.1-.5-.6-.8-1.1-1.1-1.5-.6-.4-1.1-.6-1.5-.8-.6-.4-1.1-.9-1.6-1.4-1.4-1.6-2.5-2.6-3.1-3.1-.8-.5-1.4-.9-1.8-1.1-1.8-1.7-3.1-2.9-4-3.8-.2-.3-.2-.5-.3-.6-1.3-1.3-2.5-2.6-3.8-3.7-.4-.3-.7-.4-.9-.5.9-.9 1.5-1.6 2-2.1.6-.8 1-1.4 1.3-1.8 2.7-2.8 4.3-4.4 4.8-4.8.3-.2.6-.3.8-.4 3.3-3.5 5.8-6.2 7.6-8.2.4-.2.6-.4.8-.5 1.1-1 1.9-1.7 2.3-2.1 1.5-.8 3-1.1 4.7-.9.1-.5.2-1.1.2-1.6-3.4.1-6 .2-7.9.3 0 0-.5-.1-1.5-.2-.4 0-.8.1-1 .2-3.1-.3-5.2-.3-6.4 0 0 .7.1 1.1.2 1.2.7.1 1.3.2 2 .3.8.1 1.5.5 2 1.1.5.6.6 1.2.2 2-.5 1-1 1.8-1.4 2.4-.7.9-1.2 1.5-1.6 1.9-1.2 1.4-2.8 3-4.8 5-.5.4-.9.7-1.2.9-.9 1.1-2.7 2.9-5.3 5.5-.7.8-1.3 1.4-1.7 1.9-.6.5-.9.7-1 .8-.2-1.5-.2-2.6-.1-3.4-.3-1.6-.4-2.4-.4-2.4.1-1 .1-1.8.2-2.4-.2-.5-.2-1-.2-1.4 0-.1.1-.2.2-.4.2-.2.2-.3.2-.3 0-.3-.1-.8-.3-1.3-.1-.5-.2-.8-.2-.9.3-2 .6-3.5.8-4.5.2-1.3.3-2 .4-2.1.6-.9 1.3-1.5 2.3-1.9.8-.2 1.5-.3 2.3-.5v-.7c0-.3-.1-.5-.3-.8-.7.1-2.6.1-5.7.1-.4 0-.8 0-1.3.1s-.8.1-.8.1h-3.1l-6.2-.3c-1.1-.1-1.7.3-1.7 1 0 .1 0 .2.1.4 1.8.2 3.1.5 3.8.9.5.3 1 .9 1.3 2.1.3.9.4 1.6.4 2.3V45c0 .1-.1.3-.2.5v3.1c.4.5.5 1.1.4 1.6-.4 1.8-.4 3.2-.1 4.3 0-.2-.1.6-.1 2.2v3.8c0 .5.1.9.4 1.3.3.3.4.5.4.4-.6.9-.9 1.5-1 1.8 0 2.4.1 4.2.2 5.4-.2 2.4-.3 4.1-.5 5.3-.2 1.7-.4 2.8-.6 3.2-.5 1-1.2 1.6-1.9 2-.3.2-.9.3-1.7.4-.6.1-1 .3-1.1.5v.3c0 .5.3.8.9.9.5.1 1 .1 1.5 0h5c-.1 0 .5-.1 1.8-.2 1.2-.1 2-.2 2.6-.1.2 0 .6.1 1.3.2.6.1 1 .2 1 .2h3.5c1.2-.2 2-.2 2.5-.3.2-.1.2-.5.2-1.2-1-.4-1.7-.6-2.3-.7-1.4-.3-2.5-1-3.3-2.4-.1-.7-.2-1.3-.2-1.7-.2-1-.4-1.7-.5-2.2-.2-1.5-.3-2.7-.4-3.5 0-1.7.1-3 .1-3.9-.1-1.5-.2-2.7-.3-3.4-.1-1.4 0-2.2.3-2.4.8.6 1.5 1 1.9 1.4.7.6 1.3 1 1.7 1.3.6.8 1.1 1.4 1.3 1.8.6.4 1.1.6 1.5.7.3.3.4.5.5.7.5.3 1 .5 1.3.7.1-.3.2-.5.3-.7-.3-.1-.4-.2-.4-.4.3 0 .6.1.9.5l.6.6c1 .3 1.6.7 1.9 1.2-.6-.2-.9-.2-1-.3l-.9-.3s-.2.1-.6.2c.9.8 1.7 1.4 2.4 1.8l2.2 2.2c2.4 2 4.3 3.7 5.6 5 .6.5.9.9.9 1.1.7.7 1.2 1.2 1.6 1.5.1.2.1.3.1.4 0 .4-.6.6-1.7.7-.3.4-.2.9.1 1.4l6-.1h3.6l6 .1c.4-.5.2-1-.1-1.4"/><path class="st1" d="M89 101.6h.2c.5-.1.9-.1 1.2-.6.2-.4.2-1.2.2-1.6V93c0-1.2.1-2.1-1.3-2.2h-.2v-.5h5.2c1.7 0 3.7.1 5.1 1.2 1.5 1.1 2.3 3 2.3 4.9 0 1.8-.8 3.6-2.2 4.7-1.5 1.1-3.4 1.2-5.2 1.2H89v-.7zm3.3-1.9c0 .4 0 1.1.4 1.4.3.3 1.4.3 1.8.3 3.3 0 5-2 5-5.3 0-1.4-.3-2.9-1.3-3.9-.9-.9-2.4-1.3-3.7-1.3-.5 0-1.6.1-1.9.5-.2.3-.2 1-.2 1.4v6.9zm12.7-2.6v.9c0 .8.3 1.8.8 2.4.5.7 1.4 1.1 2.2 1.1 1.2 0 2-.6 2.6-1.6l.6.3c-.6 1.4-2.1 2.1-3.6 2.1-1.2 0-2.2-.3-3.1-1.1-.9-.9-1.3-2.1-1.3-3.3 0-2.5 1.6-4.4 4.2-4.4 2.1 0 3.8 1.4 3.8 3.6H105zm4.2-.7c0-1.3-.8-2.2-2-2.2s-2.1 1-2.2 2.2h4.2zm12.3 3.6c0 .9.2 1.6 1.2 1.7h.2v.5h-4.7v-.5h.2c1.1-.1 1.3-.7 1.3-1.7v-3.6c0-.5-.1-.9-.3-1.3-.3-.4-.8-.6-1.2-.6-1.2 0-2.3.7-3.1 1.4v4.1c0 1 .2 1.6 1.3 1.7h.2v.5h-4.7v-.5h.2c1.2-.1 1.4-.6 1.4-1.7v-3.6c0-1-.2-1.6-1.3-1.7h-.3v-.5l2.7-.4h.6v1.4c1.1-1 2.3-1.6 3.7-1.6.7 0 1.4.2 1.9.7.6.5.7 1.1.7 1.8v3.9zm7.6-5.8h-2.5v4.9c0 1 0 2.4 1.3 2.4.6 0 1.1-.4 1.5-.8l.4.4c-.6.8-1.5 1.1-2.5 1.1-.6 0-1.2-.1-1.7-.4-.7-.5-.8-1.1-.8-1.9v-5.7h-1.5v-.6c2-.1 2.4-1.5 2.4-3.2h.8v3.2h2.5v.6zm11 7.5c-.4.4-1.2.6-1.8.6-.9 0-1.6-.4-1.9-1.3-1 .8-2 1.3-3.3 1.3-1.2 0-2.7-.7-2.7-2.1 0-1.2.7-1.8 1.7-2.2.9-.4 1.9-.6 2.9-.7l1.3-.1v-1.3c0-.5-.1-1-.6-1.3-.5-.3-1.1-.4-1.6-.4s-1.7.3-1.7.9v.2c0 .6-.2 1.1-.9 1.1-.4 0-.8-.3-.8-.8 0-.7.8-1.4 1.4-1.6.7-.3 1.7-.5 2.5-.5.7 0 1.7.2 2.3.6.9.5 1 1.2 1 2.2v3.4c0 .7.1 1.8 1 1.8.3 0 .5-.1.7-.3l.5.5zm-3.7-3.9c-1.3.1-4.2.5-4.2 2.2 0 .9.8 1.4 1.6 1.4.9 0 1.9-.6 2.6-1.2v-2.4zm7.1 2.1c0 .9.1 1.6 1.2 1.7h.2v.5h-4.6v-.5h.2c1.1-.1 1.3-.6 1.3-1.7v-7c0-1.2.1-2.1-1.3-2.2h-.2v-.5c.9-.1 1.7-.2 2.5-.6h.7v10.3zm9.4-6.9c0-1.2.1-2.1-1.3-2.2h-.3v-.5h4.9v.5h-.2c-.5 0-1 .1-1.2.6-.2.4-.2 1.2-.2 1.6v2.4h6.3V93c0-1.2.1-2.1-1.3-2.2h-.3v-.5h4.9v.5h-.2c-.5.1-1 .1-1.2.6-.2.4-.2 1.2-.2 1.6v6.5c0 1.2-.1 2.1 1.3 2.2h.3v.5h-4.9v-.5h.2c.5 0 1-.1 1.2-.6.2-.4.2-1.2.2-1.6v-3.3h-6.3v3.3c0 1.2-.1 2.1 1.3 2.2h.3v.5h-4.9v-.5h.2c.5-.1 1-.1 1.2-.6.2-.4.2-1.2.2-1.6V93zm14.4 4.1v.9c0 .8.3 1.8.8 2.4.5.7 1.4 1.1 2.2 1.1 1.2 0 2-.6 2.6-1.6l.6.3c-.6 1.4-2.1 2.1-3.6 2.1-1.2 0-2.2-.3-3.1-1.1-.9-.9-1.3-2.1-1.3-3.3 0-2.5 1.6-4.4 4.2-4.4 2.1 0 3.8 1.4 3.8 3.6h-6.2zm4.2-.7c0-1.3-.8-2.2-2-2.2s-2.1 1-2.2 2.2h4.2zm12.7 5.3c-.4.4-1.2.6-1.8.6-.9 0-1.6-.4-1.9-1.3-1 .8-2 1.3-3.3 1.3-1.2 0-2.7-.7-2.7-2.1 0-1.2.7-1.8 1.7-2.2.9-.4 1.9-.6 2.9-.7l1.3-.1v-1.3c0-.5-.1-1-.6-1.3-.5-.3-1.1-.4-1.6-.4s-1.7.3-1.7.9v.2c0 .6-.2 1.1-.9 1.1-.4 0-.8-.3-.8-.8 0-.7.8-1.4 1.4-1.6.7-.3 1.7-.5 2.5-.5.7 0 1.7.2 2.3.6.9.5 1 1.2 1 2.2v3.4c0 .7.1 1.8 1 1.8.3 0 .5-.1.7-.3l.5.5zm-3.7-3.9c-1.3.1-4.2.5-4.2 2.2 0 .9.8 1.4 1.6 1.4.9 0 1.9-.6 2.6-1.2v-2.4zm7.1 2.1c0 .9.1 1.6 1.2 1.7h.2v.5h-4.6v-.5h.2c1.1-.1 1.3-.6 1.3-1.7v-7c0-1.2.1-2.1-1.3-2.2h-.2v-.5c.9-.1 1.7-.2 2.5-.6h.7v10.3zm7.7-5.7h-2.5v4.9c0 1 0 2.4 1.3 2.4.6 0 1.1-.4 1.5-.8l.4.4c-.6.8-1.5 1.1-2.5 1.1-.6 0-1.2-.1-1.7-.4-.7-.5-.8-1.1-.8-1.9v-5.7h-1.5v-.6c2-.1 2.4-1.5 2.4-3.2h.8v3.2h2.5v.6zm10.5 5.7c0 1 .1 1.6 1.2 1.7h.2v.5h-4.7v-.5h.2c1.2-.1 1.4-.6 1.4-1.7v-3.6c0-.5 0-1-.3-1.4-.3-.3-.8-.5-1.2-.5-1 0-2.4.7-3.1 1.4v4.1c0 1 .1 1.6 1.2 1.7h.2v.5h-4.7v-.5h.2c1.2-.1 1.4-.6 1.4-1.7v-7c0-1.2.1-2.1-1.3-2.2h-.2v-.5c.9-.1 1.7-.2 2.5-.6h.7V95c1-.9 2.2-1.5 3.6-1.5.6 0 1.4.2 2 .6.7.5.7 1.3.7 2.1v3.7zm19.2-5.3h-.6l-.1-.1c-.4-.8-.9-1.8-1.5-2.5-.8-.8-1.8-1.2-2.9-1.2-1.3 0-2.4.6-3.1 1.7-.7 1.1-.9 2.5-.9 3.8 0 1.2.2 2.6 1 3.6s2 1.6 3.4 1.6c1.8 0 3.4-1.1 4.3-2.6l.8.4c-1.2 2-3 3.1-5.4 3.1-3.6 0-6.2-2.6-6.2-6.2 0-3.3 2.4-6.3 5.9-6.3 1.3 0 2.5.4 3.5 1.3l.4-.8h.6l.8 4.2zm3.5 2.5v.9c0 .8.3 1.8.8 2.4.5.7 1.4 1.1 2.2 1.1 1.2 0 2-.6 2.6-1.6l.6.3c-.6 1.4-2.1 2.1-3.6 2.1-1.2 0-2.2-.3-3.1-1.1-.9-.9-1.3-2.1-1.3-3.3 0-2.5 1.6-4.4 4.2-4.4 2.1 0 3.8 1.4 3.8 3.6h-6.2zm4.3-.7c0-1.3-.8-2.2-2-2.2s-2.1 1-2.2 2.2h4.2zM245 100c0 .9.2 1.6 1.2 1.7h.2v.5h-4.7v-.5h.2c1.1-.1 1.3-.7 1.3-1.7v-3.6c0-.5-.1-.9-.3-1.3-.3-.4-.8-.6-1.2-.6-1.2 0-2.3.7-3.1 1.4v4.1c0 1 .2 1.6 1.3 1.7h.2v.5h-4.7v-.5h.2c1.2-.1 1.4-.6 1.4-1.7v-3.6c0-1-.2-1.6-1.3-1.7h-.3v-.5l2.7-.4h.6v1.4c1-1 2.3-1.6 3.7-1.6.7 0 1.4.2 1.9.7.6.5.7 1.1.7 1.8v3.9zm7.7-5.8h-2.5v4.9c0 1 0 2.4 1.3 2.4.6 0 1.1-.4 1.5-.8l.4.4c-.6.8-1.5 1.1-2.5 1.1-.6 0-1.2-.1-1.7-.4-.7-.5-.8-1.1-.8-1.9v-5.7H247v-.6c2-.1 2.4-1.5 2.4-3.2h.8v3.2h2.5v.6zm3.2 2.9v.9c0 .8.3 1.8.8 2.4.5.7 1.4 1.1 2.2 1.1 1.2 0 2-.6 2.6-1.6l.6.3c-.6 1.4-2.1 2.1-3.6 2.1-1.2 0-2.2-.3-3.1-1.1-.9-.9-1.3-2.1-1.3-3.3 0-2.5 1.6-4.4 4.2-4.4 2.1 0 3.8 1.4 3.8 3.6h-6.2zm4.2-.7c0-1.3-.8-2.2-2-2.2s-2.1 1-2.2 2.2h4.2zm5.9 3.5c0 1 .2 1.6 1.3 1.7h.3v.5h-4.8v-.5h.2c1.2-.1 1.3-.6 1.3-1.7v-3.6c0-1-.2-1.6-1.3-1.7h-.3v-.5l2.7-.4h.6V95c.8-.8 1.8-1.5 2.9-1.5.6 0 1.3.2 1.3.9 0 .6-.4.9-1 .9-.8 0-1-.6-1.6-.6-.6 0-1.3.5-1.7 1v4.2z"/><path class="st0" d="M79 30H68.3c-1.8 0-3.6 0-5.3-.2-.5-.1-1.3-.4-1.5.2-.2.4-.4 1.3-.3 1.7.1.5 1 .7 1.4.9.7.3 1.4.6 1.9 1.2 1 1.2 1.3 2.9 2 4.2.8 1.5.7 3.1.9 4.7.1.9.4 1.6.6 2.4.2.9.1 1.8.1 2.7 0 3.8.2 7.6 0 11.4 0 .9-.1 1.8.1 2.7.1.4.2.8.2 1.2 0 .4-.2.8-.3 1.3-.3 1.8 0 3.7-.1 5.5 0 .9.1 1.8.1 2.7 0 .3-.2.7-.2 1.1 0 .4.2.7.3 1.1.3.8.3 1.7.3 2.6 0 .8.1 1.7 0 2.5s-.2 8.5-.1 9.2c.1.8.1 3.2-.2 4.2-.7 2.2-1.8 5.5-2 5.9-.7 1.3-2.5 1.5-3.7 1.8-.6.2-1.1.4-1.2 1.1-.1.5-.1 1.2.3 1.5.5.5 1.3.3 2 .3.9 0 1.8-.1 2.7-.1 1.8 0 3.5 0 5.3-.3.8-.1 1.7.1 2.5 0 .9-.1 1.7-.2 2.5-.1 1.8.2 3.5.1 5.3.2.7 0 1.3.2 1.6-.6.1-.3.2-.7.2-1 0-.4.1-.6-.3-.7-1.4-.3-2.7-.7-3.8-1.6-1.1-.9-1.7-2.3-2-3.7-.8-3.3-.7-6.8-.6-10.2.1-1.9 0-3.8.1-5.8 0-.9.1-1.8 0-2.7-.1-.9-.2-1.6 0-2.5.2-.9.1-1.9.1-2.8v-8.7c0-3.9 0-7.7.1-11.6V46c0-1.8.2-3.6.5-5.4.2-1.7.5-3.4 1.1-5 .3-.7.6-1.4 1-1.9.5-.6 1.3-.8 2-1.1.4-.1 1.4-.2 1.7-.6.2-.2.2-.7.3-1 .1-.4.2-.9.2-1.3-2-.2-3.6.2-5.1.3"/></svg>