<svg width="223" height="80" viewBox="0 0 223 80" xmlns="http://www.w3.org/2000/svg"><title>ikuta-logo-process copy</title><g fill="none" fill-rule="evenodd"><path d="M187.726 34.428c0-.752 0-.967-.107-.752.214-.43.428-.645.535-.967.321-1.182.536-2.042.643-2.686.214-.538.428-.86.643-1.182.107-.752.214-1.397.214-1.827.321-.752.535-1.29.75-1.72.214-.859.321-1.503.428-1.933.214-.323.429-.645.536-.752 1.178-2.364 2.356-4.62 3.32-6.877.43 1.074.75 1.934.858 2.471.535 1.29.964 2.257 1.285 2.901.643 2.15 1.178 3.869 1.5 4.943 2.035 5.48 3 8.274 3 8.274h-13.605v.107zm35.136 20.737c-.857-.322-1.393-.537-1.821-.644-1.393-.537-2.25-.967-2.357-1.29-.643-1.289-1.178-2.149-1.393-2.578-.857-2.042-1.392-3.654-1.82-4.836-.108-.43-.108-.644-.108-.967-.535-.967-.964-1.611-1.285-2.041-.857-2.042-1.5-3.438-1.821-4.19-.107-.43-.215-.86-.215-1.075-.428-1.397-.75-2.579-.75-3.33-1.178-3.44-2.142-6.125-2.678-7.952-.856-1.934-1.5-3.438-1.928-4.405-.321-1.29-.428-1.935-.321-2.15-.75-1.074-1.286-2.363-1.714-3.653-.214-1.074-.429-1.826-.429-2.363-1.82-4.513-3.106-7.844-3.856-9.993-2.142-.215-3.856-.215-4.928-.323-1.178-.107-1.82 0-1.928.215a12.305 12.305 0 0 0-.643 1.505c-.75 1.719-1.178 2.9-1.5 3.76-.32.967-.535 1.72-.642 2.15-.964 2.148-1.607 3.76-1.821 4.834-.75 2.257-1.393 3.976-1.821 5.158-.107.537-.107.86-.107 1.182.107-.43.214-.645.321-.752v.107c0 .43-.107 1.29-.428 2.364-.322 1.182-.536 1.827-.75 1.827-.107 0-.214-.215-.322-.645-.214.215-.32.43-.428.537-1.178 3.76-2.143 6.662-2.785 8.489a85.627 85.627 0 0 1-2.143 5.802c-.857 2.686-1.5 4.728-1.82 6.017-.965 2.149-1.715 3.76-2.143 4.728-.429.967-1.071 1.719-1.714 2.149a9.463 9.463 0 0 0-1.5 1.611c-.857.645-1.285 1.075-1.285 1.397 0 .108 0 .215.107.323 1.928.214 3 .322 3 .322 1.285-.215 2.356-.322 2.999-.537 2.999 0 5.356.107 6.963.215 1.07-.215 1.82-.323 2.356-.538-.107-.215-.321-.537-.535-.967-.322-.107-.536-.107-.643-.215-.536-.215-1.178-.644-1.928-1.182-.75-.644-1.179-1.074-1.286-1.289-.214-.43-.214-1.397 0-2.686.322-1.827.429-2.686.429-2.471 0-.323.321-1.505.964-3.439.535-1.182.857-2.041 1.178-2.686.536-1.182 1.179-1.72 1.821-1.72l8.784-.107c4.07-.215 6.32-.322 6.856-.322.321 0 .536.107.536.215 0 .537.214 1.397.642 2.579.536 1.396.857 2.149.965 2.364.75 3.223 1.285 5.587 1.606 7.199.108.322.108.752-.107 1.396a2.933 2.933 0 0 1-.964 1.29c-.964.322-1.82.537-2.357.537-.107.537-.214 1.29-.107 2.149.429.43 1.286.645 2.464.322 2.25-.43 5.356-.644 9.427-.644h3.32c-.106 0 .643.107 2.25.215.964.107 1.714 0 2.25-.215v-.753h-.107zm-48.955-51.36c-.643.108-1.286.215-1.928.215-1.714.108-3.428.215-5.25.537-1.713.323-2.463.43-2.463.43h-6.856c.107 0-1.5-.107-5.035-.43-3.535-.322-6.106-.43-7.82-.43-5.891 0-8.462 0-7.605.108l-1.286 1.72c-.214.966-.428 2.9-.857 5.801-.321 2.364-.643 4.19-.964 5.265-.107.215 0 .538 0 1.075.107.537.214.967.214 1.074.964 0 1.607-.215 1.821-.752.536-.967 1.072-2.686 1.714-5.157.107-.538.75-1.29 1.929-2.15 1.178-.859 2.142-1.289 2.999-1.289h7.713c.428 3.869.643 6.017.643 6.34.535 1.719 1.07 3.008 1.392 3.975-.107.215-.214.323-.321.323h-1.071v14.935c-.215 4.19-.322 8.166-.429 12.034-.214 2.15-.428 3.439-.536 3.76-.642 1.075-1.714 2.042-3.213 2.795a32.762 32.762 0 0 1-3.75 1.181v.645c0 .323.108.537.322.537h23.567c.642-.752.964-1.396.964-1.826-1.286-.323-2.571-.537-3.857-.86-1.606-.43-2.463-1.29-2.785-2.686-.535-2.901-1.071-5.05-1.285-6.447a49.7 49.7 0 0 1 .107-6.017c-.321-3.868-.536-5.802-.536-5.695.536-5.91.643-10.53.322-13.86-.322-3.331-.322-5.91.107-7.737.214-.644.643-1.182 1.392-1.397 2.143-.43 3.75-.644 4.928-.752 2.25-.537 3.75-.537 4.285-.107 1.393.967 2.25 2.256 2.464 4.083.428 3.116.642 4.728.642 4.942.108 0 .429 0 .75-.107.322-.107.643-.107.75-.107v-9.67c.214-1.505.429-2.687.536-3.761-.322-.43-.857-.645-1.714-.538zm-45.206.538c-.107 0-.321 0-.643-.108h-.642c-2.571.215-4.392.215-5.464.108-.535 0-1.07.107-1.392.107-1.928-.43-3.857-.43-5.892-.215-.964.108-1.392.215-1.285.215 0 .43.107.752.214 1.074.857.215 1.393.323 1.714.323 1.821.537 2.892 1.182 3.106 2.041.643 2.15 1.072 4.083 1.286 5.695l-.107 19.663c.214 2.471.214 4.405 0 5.91-.322 2.149-.536 4.083-.75 5.587-.429 1.827-1.5 3.546-3.107 5.158-1.714 1.826-3.32 2.686-4.82 2.686h-5.57c-.965 0-1.822 0-2.571-.108-.857-.107-1.822-.537-2.786-1.29-.75-.536-1.5-1.181-2.25-1.718-.963-1.075-1.606-1.934-2.035-2.472a23.85 23.85 0 0 1-1.392-2.041c.107-.43.107-.86 0-1.075-.214-.537-.429-.967-.536-1.289V41.09a60.597 60.597 0 0 0-.214-2.794c-.214-.43-.321-.752-.536-.967-.32-2.041-.428-3.33-.32-3.975.213-1.935.32-2.902.32-3.116-.107-.215-.107-.43-.214-.538.214-2.041.214-3.33.214-3.653-.214-2.364-.428-3.438-.428-3.116.214-1.72.321-2.901.214-3.33.214-1.398.322-2.15.322-2.15-.215-.967-.429-1.504-.429-1.397.643-2.9 1.286-5.694 1.821-8.166.107-.322.322-.644.857-1.074.321-.215.643-.323.857-.43.321-.215.643-.43.75-.537 1.714-.323 2.57-.645 2.57-1.075 0-.215-.106-.43-.32-.752-2.679.215-4.607.215-6 .215-.32 0-.856.108-1.606.215-.643.107-1.071.215-1.179.215h-4.07c-2.785 0-5.25-.215-7.392-.537-.964-.108-1.392.107-1.392.537 0 .107 0 .322.107.43 2.357.537 3.642.967 3.963 1.182 1.072.644 1.607 1.719 1.822 3.33.535 7.2.964 12.572 1.178 16.225l.321 13.216c.214 6.984 2.785 11.927 7.82 14.828.75.43 1.286.752 1.607.752.857.108 1.5.215 2.035.215 1.5.537 2.571 1.075 3.321 1.504 1.178.215 2.143.323 2.785.323 1.821.43 2.464.537 2.143.537h3.106s.215.107.536.215c.321.107.536.215.643.107.857-.43 1.392-.644 1.82-.967 1.929-.537 3.107-.644 3.536-.322 1.392-.967 2.892-2.042 4.285-3.009 1.82-1.289 3-2.363 3.642-3.223.535-.752 1.178-2.042 2.035-3.76.75-1.72 1.286-3.117 1.393-3.976.428-2.901.642-5.05.75-6.555-.108.538-.108-.537-.108-3.223 0-.108 0-.215.108-.322.107-.108.107-.215.107-.323 0-3.546-.107-6.447-.322-8.703-.107-.537-.107-.967 0-1.075 0-.107.107-.322.215-.644.107-.323.107-.537.107-.645V17.56s-.215-1.29-.536-3.868c-.107-.43 0-1.397.107-2.902.107-.322.214-.537.322-.644.214-1.612.75-2.794 1.606-3.654.75-.322 1.393-.537 1.822-.43 1.07-.322 1.82-.43 2.356-.537.322-.107.536-.644.536-1.611-2.464.215-3.75.43-4.07.43zM79.104 54.52c-.643 0-1.179-.108-1.5-.108-1.393-.537-2.357-.967-3-1.289-.321-.215-.428-.43-.535-.537-1.821-1.505-3.214-2.794-4.178-3.868-2.464-2.042-3.75-3.116-3.964-3.331-.535-.645-.857-1.182-1.178-1.612-.643-.43-1.178-.645-1.607-.86-.642-.43-1.178-.967-1.714-1.504-1.5-1.72-2.678-2.794-3.32-3.33-.857-.538-1.5-.968-1.929-1.183-1.928-1.826-3.32-3.116-4.285-4.083-.214-.322-.214-.537-.32-.644-1.394-1.397-2.679-2.794-4.072-3.976-.428-.322-.75-.43-.964-.537.964-.967 1.607-1.72 2.143-2.257.642-.86 1.071-1.504 1.392-1.934 2.893-3.008 4.607-4.727 5.142-5.157.322-.215.643-.323.857-.43 3.535-3.76 6.213-6.662 8.142-8.81.428-.216.642-.43.856-.538 1.179-1.074 2.036-1.827 2.464-2.256 1.607-.86 3.214-1.182 5.035-.967.107-.538.214-1.182.214-1.72-3.642.108-6.427.215-8.462.323 0 0-.536-.108-1.607-.215-.429 0-.857.107-1.071.215-3.321-.323-5.57-.323-6.856 0 0 .752.107 1.182.214 1.29.75.107 1.393.214 2.142.321a3.307 3.307 0 0 1 2.143 1.182c.535.645.643 1.29.214 2.15a23.774 23.774 0 0 1-1.5 2.578c-.75.967-1.285 1.612-1.714 2.042-1.285 1.504-2.999 3.223-5.141 5.372-.536.43-.965.752-1.286.967-.964 1.182-2.892 3.116-5.677 5.91-.75.86-1.393 1.504-1.821 2.041-.643.537-.965.752-1.072.86-.214-1.612-.214-2.794-.107-3.653-.321-1.72-.428-2.58-.428-2.58.107-1.074.107-1.933.214-2.578-.214-.537-.214-1.074-.214-1.504 0-.108.107-.215.214-.43.214-.215.214-.322.214-.322 0-.323-.107-.86-.321-1.397-.107-.537-.214-.86-.214-.967.321-2.15.642-3.76.857-4.835.214-1.397.32-2.15.428-2.257.643-.967 1.393-1.612 2.464-2.041.857-.215 1.607-.323 2.464-.538v-.752c0-.322-.107-.537-.322-.86-.75.108-2.785.108-6.106.108-.428 0-.857 0-1.392.108-.536.107-.857.107-.857.107h-3.321l-6.642-.322c-1.178-.108-1.82.322-1.82 1.074 0 .108 0 .215.106.43 1.929.215 3.321.537 4.071.967.536.322 1.071.967 1.393 2.256.321.967.428 1.72.428 2.472v5.265c0 .107-.107.322-.214.537v3.331c.428.537.536 1.182.428 1.719-.428 1.934-.428 3.438-.107 4.62 0-.215-.107.645-.107 2.364v4.083c0 .537.107.967.429 1.397.321.322.428.537.428.43-.643.967-.964 1.612-1.071 1.934 0 2.579.107 4.513.214 5.802-.214 2.579-.321 4.405-.535 5.695-.215 1.826-.429 3.008-.643 3.438a4.958 4.958 0 0 1-2.036 2.15c-.32.214-.964.321-1.82.429-.643.107-1.072.322-1.179.537v.322c0 .538.321.86.964.968a4.045 4.045 0 0 0 1.607 0h5.356c-.107 0 .536-.108 1.928-.215 1.286-.108 2.143-.215 2.786-.108.214 0 .642.108 1.392.215.643.108 1.071.215 1.071.215h3.75c1.285-.215 2.142-.215 2.678-.322.214-.108.214-.538.214-1.29-1.071-.43-1.821-.644-2.464-.752-1.5-.322-2.678-1.074-3.535-2.579-.107-.752-.214-1.396-.214-1.826-.214-1.075-.429-1.827-.536-2.364-.214-1.612-.321-2.901-.428-3.76 0-1.827.107-3.224.107-4.191-.107-1.612-.214-2.901-.322-3.654-.107-1.504 0-2.363.322-2.578.857.644 1.607 1.074 2.035 1.504.75.645 1.393 1.074 1.821 1.397.643.86 1.179 1.504 1.393 1.934.643.43 1.178.645 1.607.752.321.322.428.537.535.752.536.322 1.071.537 1.393.752a5.27 5.27 0 0 1 .321-.752c-.321-.107-.428-.215-.428-.43.321 0 .642.108.964.538l.643.644c1.07.323 1.714.752 2.035 1.29-.643-.215-.964-.215-1.071-.323l-.964-.322s-.215.107-.643.215c.964.86 1.82 1.504 2.57 1.934l2.357 2.364c2.571 2.149 4.607 3.975 6 5.372.642.537.963.967.963 1.182.75.752 1.286 1.29 1.714 1.612a.809.809 0 0 1 .108.43c0 .43-.643.644-1.822.752-.32.43-.214.967.108 1.504l6.427-.107h3.856l6.428.107c.428-.537.214-1.074-.107-1.504z" fill="#83CEE8"/><path d="M19.096.39H7.634c-1.928 0-3.856 0-5.677-.214C1.42.069.564-.254.35.391.136.82-.08 1.788.028 2.218c.108.537 1.072.752 1.5.967.75.322 1.5.644 2.036 1.289 1.07 1.29 1.392 3.116 2.142 4.513.857 1.611.75 3.33.964 5.05.107.967.429 1.719.643 2.579.214.967.107 1.934.107 2.9 0 4.084.214 8.167 0 12.25 0 .967-.107 1.934.107 2.9.107.43.214.86.214 1.29 0 .43-.214.86-.321 1.397-.321 1.934 0 3.976-.107 5.91 0 .967.107 1.934.107 2.9 0 .323-.214.753-.214 1.183 0 .43.214.752.321 1.182.321.86.321 1.826.321 2.793 0 .86.108 1.827 0 2.686-.107.86-.214 9.134-.107 9.886.107.86.107 3.438-.214 4.513-.75 2.363-1.928 5.91-2.142 6.339-.75 1.397-2.678 1.612-3.964 1.934-.643.215-1.178.43-1.285 1.182-.108.537-.108 1.29.321 1.612.536.537 1.393.322 2.142.322.965 0 1.929-.107 2.893-.107 1.928 0 3.749 0 5.677-.323.857-.107 1.821.108 2.678 0 .964-.107 1.821-.215 2.678-.107 1.929.215 3.75.107 5.678.215.75 0 1.392.215 1.714-.645.107-.322.214-.752.214-1.074 0-.43.107-.645-.321-.753-1.5-.322-2.893-.752-4.071-1.719-1.178-.967-1.821-2.471-2.142-3.975-.857-3.546-.75-7.307-.643-10.96.107-2.042 0-4.083.107-6.232 0-.967.107-1.934 0-2.901-.107-.967-.214-1.72 0-2.686.214-.967.107-2.042.107-3.009v-9.348c0-4.19 0-8.273.107-12.464v-6.124c0-1.934.214-3.869.536-5.803.214-1.826.535-3.653 1.178-5.372.322-.752.643-1.504 1.071-2.042.536-.644 1.393-.86 2.143-1.181.428-.108 1.5-.215 1.82-.645.215-.215.215-.752.322-1.075.107-.43.215-.967.215-1.396-2.143-.215-3.857.214-5.464.322" fill="#83CEE7"/></g></svg>