<svg width="148" height="148" viewBox="0 0 148 148" xmlns="http://www.w3.org/2000/svg"><title>ikuta-logo-process copy</title><g transform="translate(.04)" fill="none" fill-rule="evenodd"><path d="M73.59 147.32c40.608 0 73.59-33.014 73.59-73.66C147.18 33.013 114.198 0 73.59 0 32.982 0 0 33.013 0 73.66c0 40.837 32.982 73.66 73.59 73.66" fill="#63B1CB"/><path d="M73.299 140.724c37.176 0 67.299-30.15 67.299-67.362C140.598 36.151 110.475 6 73.298 6 36.123 6 6 36.15 6 73.362c0 37.212 30.122 67.362 67.299 67.362" fill="#005B70"/><ellipse stroke="#B6AF12" stroke-width="2.691" cx="73.299" cy="73.362" rx="67.299" ry="67.362"/><path d="M107.925 83.294c10.485.954 9.341-1.336 4.957-4.961-4.195-3.817-8.198-.382-11.82.572-1.335.382-10.677 1.336-21.925 2.29v-.19c.19-3.626-2.67-5.344-9.723-6.107a79.856 79.856 0 0 0 4.575-1.145c9.151-2.863 12.392-6.107 13.155-7.633.381-.573 0-1.527-.953-2.863 5.529-1.526 14.298-4.961 17.73-13.74.763-2.098-3.24-4.007-8.58-5.724 3.814-.191 8.199-.382 11.821-.382 5.91 0 4.194-1.717 2.097-3.435-2.097-1.717-4.003-1.908-5.72-.763-1.334.954-8.769 1.908-13.345 2.29 1.526-2.1 2.098-3.626 1.907-4.77-.572-2.482-5.338-6.87-15.633-9.733 0 0 1.334 2.1 1.144 4.198-.382 3.435-1.716 11.64-12.011 24.808-.19-.573-.572-1.145-1.144-1.718-2.288-2.29-4.194-4.77-5.72-6.106 1.716-.19 3.432-.382 5.53-.573 6.29-.572 7.244-.381 6.29-1.908-.953-1.336-2.668-3.053-4.003-1.717-.953.954-5.529 1.335-9.151 1.526 2.478-3.435 3.813-6.106 3.813-6.87.381-2.29-6.291-7.251-15.633-9.16 0 0 1.906 1.909 2.097 3.245.19 1.336.381 14.312-14.68 30.723 0 0 11.63-3.244 17.92-10.114 1.145-1.336 2.289-2.671 3.433-3.816 0 1.526.38 3.435.953 5.725 1.144 4.58 5.529 12.785 8.007 9.923 1.716-1.909 3.05-4.771 2.67-7.443 3.43-.954 10.294-3.053 15.632-7.824 2.288-2.099 4.195-3.816 5.72-5.343 1.334-.19 2.86-.381 4.385-.381.19.763.38 1.717.19 2.48-.19 1.145-3.05 8.015-8.198 14.694-2.097-1.527-5.147-3.244-9.913-4.962 0 0 .572 1.145 0 2.672-1.144 2.862-8.389 10.305-28.788 20.037 0 0 10.295-1.145 19.446-2.862.381.572.763 1.145.953 1.908 0 .572.19 2.29-.381 4.77-13.727 1.146-26.119 2.1-27.072 1.909C36.05 84.63 33 82.913 33 82.913c.572.763 1.525 9.35 7.817 7.06 2.669-.954 12.201-2.48 23.259-3.626-1.144 4.008-3.623 9.351-8.008 16.03-6.482 9.732-15.823 13.549-15.823 13.549s12.582-.573 20.97-7.443c6.864-5.534 11.44-11.45 14.3-16.792 1.334 3.053 2.669 5.724 3.622 7.442 3.24 6.297 7.816 13.93 14.87 15.648 2.479.572 5.91.381 8.96-.382 6.292-1.717 9.724-3.816 9.724-3.816s-4.576 1.717-7.817 2.48c3.813-1.526 7.436-3.625 7.436-3.625s-11.249-3.817-18.303-7.824c-4.575-2.672-11.63-11.068-15.823-16.412 12.392-1.908 23.83-2.48 29.74-1.908" fill="#E3F3F0"/></g></svg>