<svg id="Layer_1" xmlns="http://www.w3.org/2000/svg" xmlns:xlink="http://www.w3.org/1999/xlink" viewBox="0 0 223 80"><style>.st0{fill:#83cee8}.st1{fill:#83cee7}.st2{clip-path:url(#SVGID_2_);fill:#fff}.st3{fill-rule:evenodd;clip-rule:evenodd;fill:none}.st4,.st5{clip-path:url(#SVGID_4_);fill:#fff}.st5{clip-path:url(#SVGID_6_)}.st6,.st7{clip-path:url(#SVGID_8_);fill:#fff}.st7{clip-path:url(#SVGID_10_)}.st8,.st9{clip-path:url(#SVGID_12_);fill:#fff}.st9{clip-path:url(#SVGID_14_)}.st10,.st11{clip-path:url(#SVGID_16_);fill:#fff}.st11{clip-path:url(#SVGID_18_)}.st12,.st13{clip-path:url(#SVGID_20_);fill:#fff}.st13{clip-path:url(#SVGID_22_)}.st14,.st15{clip-path:url(#SVGID_24_);fill:#fff}.st15{clip-path:url(#SVGID_26_)}.st16,.st17{clip-path:url(#SVGID_28_);fill:#fff}.st17{clip-path:url(#SVGID_30_)}.st18,.st19{clip-path:url(#SVGID_32_);fill:#fff}.st19{clip-path:url(#SVGID_34_)}.st20{clip-path:url(#SVGID_36_)}.st20,.st21{fill:#fff}</style><title>ikuta-logo-process copy</title><path class="st0" d="M187.7 34.4c0-.8 0-1-.1-.8.2-.4.4-.6.5-1 .3-1.2.5-2 .6-2.7.2-.5.4-.9.6-1.2.1-.8.2-1.4.2-1.8.3-.8.5-1.3.8-1.7.2-.9.3-1.5.4-1.9.2-.3.4-.6.5-.8 1.2-2.4 2.4-4.6 3.3-6.9.4 1.1.8 1.9.9 2.5.5 1.3 1 2.3 1.3 2.9.6 2.1 1.2 3.9 1.5 4.9 2 5.5 3 8.3 3 8.3h-13.6l.1.2zm35.2 20.8c-.9-.3-1.4-.5-1.8-.6-1.4-.5-2.2-1-2.4-1.3-.6-1.3-1.2-2.1-1.4-2.6-.9-2-1.4-3.7-1.8-4.8-.1-.4-.1-.6-.1-1-.5-1-1-1.6-1.3-2-.9-2-1.5-3.4-1.8-4.2-.1-.4-.2-.9-.2-1.1-.4-1.4-.8-2.6-.8-3.3-1.2-3.4-2.1-6.1-2.7-8-.9-1.9-1.5-3.4-1.9-4.4-.3-1.3-.4-1.9-.3-2.1-.8-1.1-1.3-2.4-1.7-3.7-.2-1.1-.4-1.8-.4-2.4-1.8-4.5-3.1-7.8-3.9-10-2.1-.2-3.9-.2-4.9-.3-1.2-.1-1.8 0-1.9.2-.2.5-.5 1-.6 1.5-.8 1.7-1.2 2.9-1.5 3.8-.3 1-.5 1.7-.6 2.2-1 2.1-1.6 3.8-1.8 4.8-.8 2.3-1.4 4-1.8 5.2-.1.5-.1.9-.1 1.2.1-.4.2-.6.3-.8v.1c0 .4-.1 1.3-.4 2.4-.3 1.2-.5 1.8-.8 1.8-.1 0-.2-.2-.3-.6-.2.2-.3.4-.4.5-1.2 3.8-2.1 6.7-2.8 8.5-.6 2-1.4 3.9-2.1 5.8-.9 2.7-1.5 4.7-1.8 6-1 2.1-1.7 3.8-2.1 4.7-.4 1-1.1 1.7-1.7 2.1-.6.5-1.1 1-1.5 1.6-.9.6-1.3 1.1-1.3 1.4 0 .1 0 .2.1.3 1.9.2 3 .3 3 .3 1.3-.2 2.4-.3 3-.5 3 0 5.4.1 7 .2 1.1-.2 1.8-.3 2.4-.5-.1-.2-.3-.5-.5-1-.3-.1-.5-.1-.6-.2-.5-.2-1.2-.6-1.9-1.2-.8-.6-1.2-1.1-1.3-1.3-.2-.4-.2-1.4 0-2.7.3-1.8.4-2.7.4-2.5 0-.3.3-1.5 1-3.4.5-1.2.9-2 1.2-2.7.5-1.2 1.2-1.7 1.8-1.7l8.8-.1c4.1-.2 6.3-.3 6.9-.3.3 0 .5.1.5.2 0 .5.2 1.4.6 2.6.5 1.4.9 2.1 1 2.4.8 3.2 1.3 5.6 1.6 7.2.1.3.1.8-.1 1.4-.2.5-.5 1-1 1.3-1 .3-1.8.5-2.4.5-.1.5-.2 1.3-.1 2.1.4.4 1.3.6 2.5.3 2.2-.4 5.4-.6 9.4-.6h3.3c-.1 0 .6.1 2.2.2 1 .1 1.7 0 2.2-.2v-.8h-.4zm-49-51.4c-.6.1-1.3.2-1.9.2-1.7.1-3.4.2-5.2.5-1.8.4-2.5.5-2.5.5h-6.9c.1 0-1.5-.1-5-.4-3.5-.3-6.1-.4-7.8-.4-5.9 0-8.5 0-7.6.1L135.7 6c-.2 1-.4 2.9-.9 5.8-.3 2.4-.6 4.2-1 5.3-.1.2 0 .5 0 1.1.1.5.2 1 .2 1.1 1 0 1.6-.2 1.8-.8.5-1 1.1-2.7 1.7-5.2.1-.5.8-1.3 1.9-2.1 1.2-.9 2.1-1.3 3-1.3h7.7c.4 3.9.6 6 .6 6.3.5 1.7 1.1 3 1.4 4-.1.2-.2.3-.3.3h-1.1v14.9c-.2 4.2-.3 8.2-.4 12-.2 2.2-.4 3.4-.5 3.8-.6 1.1-1.7 2-3.2 2.8-1.2.5-2.5.9-3.8 1.2v.6c0 .3.1.5.3.5h23.6c.6-.8 1-1.4 1-1.8-1.3-.3-2.6-.5-3.9-.9-1.6-.4-2.5-1.3-2.8-2.7-.5-2.9-1.1-5-1.3-6.4-.1-2-.1-4 .1-6-.3-3.9-.5-5.8-.5-5.7.5-5.9.6-10.5.3-13.9-.3-3.3-.3-5.9.1-7.7.2-.6.6-1.2 1.4-1.4 2.1-.4 3.8-.6 4.9-.8 2.2-.5 3.8-.5 4.3-.1 1.4 1 2.2 2.3 2.5 4.1.4 3.1.6 4.7.6 4.9.1 0 .4 0 .8-.1.3-.1.6-.1.8-.1V8.1c.2-1.5.4-2.7.5-3.8-.2-.4-.7-.6-1.6-.5zm-45.2.5c-.1 0-.3 0-.6-.1h-.6c-2.6.2-4.4.2-5.5.1-.5 0-1.1.1-1.4.1-1.9-.4-3.9-.4-5.9-.2-1 .1-1.4.2-1.3.2 0 .4.1.8.2 1.1.9.2 1.4.3 1.7.3 1.8.5 2.9 1.2 3.1 2 .6 2.2 1.1 4.1 1.3 5.7l-.1 19.7c.2 2.5.2 4.4 0 5.9-.3 2.1-.5 4.1-.8 5.6-.4 1.8-1.5 3.5-3.1 5.2-1.7 1.8-3.3 2.7-4.8 2.7h-5.6c-1 0-1.8 0-2.6-.1-.9-.1-1.8-.5-2.8-1.3-.8-.5-1.5-1.2-2.2-1.7-1-1.1-1.6-1.9-2-2.5-.5-.7-1-1.3-1.4-2 .1-.4.1-.9 0-1.1-.2-.5-.4-1-.5-1.3v-1.5c0-.9-.1-1.9-.2-2.8-.2-.4-.3-.8-.5-1-.3-2-.4-3.3-.3-4 .2-1.9.3-2.9.3-3.1-.1-.2-.1-.4-.2-.5.2-2 .2-3.3.2-3.7-.2-2.4-.4-3.4-.4-3.1.2-1.7.3-2.9.2-3.3l.3-2.1c-.2-1-.4-1.5-.4-1.4.6-2.9 1.3-5.7 1.8-8.2.1-.3.3-.6.9-1.1.3-.2.6-.3.9-.4.2-.2.5-.4.6-.6 1.7-.3 2.6-.6 2.6-1.1 0-.2-.1-.4-.3-.8-2.7.2-4.6.2-6 .2-.3 0-.9.1-1.6.2-.6.1-1.1.2-1.2.2h-4.1c-2.8 0-5.2-.2-7.4-.5-1-.1-1.4.1-1.4.5 0 .1 0 .3.1.4 2.4.5 3.6 1 4 1.2 1.1.6 1.6 1.7 1.8 3.3.5 7.2 1 12.6 1.2 16.2L85 39c.2 7 2.8 11.9 7.8 14.8.8.4 1.3.8 1.6.8.9.1 1.5.2 2 .2 1.5.5 2.6 1.1 3.3 1.5 1.2.2 2.1.3 2.8.3 1.8.4 2.5.5 2.1.5h3.1s.2.1.5.2.5.2.6.1c.9-.4 1.4-.6 1.8-1 1.9-.5 3.1-.6 3.5-.3 1.4-1 2.9-2 4.3-3 1.8-1.3 3-2.4 3.6-3.2.5-.8 1.2-2 2-3.8.8-1.7 1.3-3.1 1.4-4 .4-2.9.6-5 .8-6.6-.1.5-.1-.5-.1-3.2 0-.1 0-.2.1-.3.1-.1.1-.2.1-.3 0-3.5-.1-6.4-.3-8.7-.1-.5-.1-1 0-1.1 0-.1.1-.3.2-.6s.1-.5.1-.6v-3.2s-.2-1.3-.5-3.9c-.1-.4 0-1.4.1-2.9.1-.3.2-.5.3-.6.2-1.6.8-2.8 1.6-3.7.8-.3 1.4-.5 1.8-.4 1.1-.3 1.8-.4 2.4-.5.3-.1.5-.6.5-1.6-2.2.2-3.5.4-3.8.4zM79.1 54.5c-.6 0-1.2-.1-1.5-.1-1.4-.5-2.4-1-3-1.3-.3-.2-.4-.4-.5-.5-1.8-1.5-3.2-2.8-4.2-3.9-2.5-2-3.8-3.1-4-3.3-.5-.6-.9-1.2-1.2-1.6-.6-.4-1.2-.6-1.6-.9-.6-.4-1.2-1-1.7-1.5-1.5-1.7-2.7-2.8-3.3-3.3-.9-.5-1.5-1-1.9-1.2-1.9-1.8-3.3-3.1-4.3-4.1-.2-.3-.2-.5-.3-.6-1.4-1.4-2.7-2.8-4.1-4-.4-.3-.8-.4-1-.5 1-1 1.6-1.7 2.1-2.3.6-.9 1.1-1.5 1.4-1.9 2.9-3 4.6-4.7 5.1-5.2.3-.2.6-.3.9-.4 3.5-3.8 6.2-6.7 8.1-8.8.4-.2.6-.4.9-.5 1.2-1.1 2-1.8 2.5-2.3 1.6-.9 3.2-1.2 5-1 .1-.5.2-1.2.2-1.7-3.6.1-6.4.2-8.5.3 0 0-.5-.1-1.6-.2-.4 0-.9.1-1.1.2-3.3-.3-5.6-.3-6.9 0 0 .8.1 1.2.2 1.3.8.1 1.4.2 2.1.3.8.1 1.6.5 2.1 1.2.5.6.6 1.3.2 2.2-.4.9-.9 1.8-1.5 2.6-.8 1-1.3 1.6-1.7 2-1.3 1.5-3 3.2-5.1 5.4-.5.4-1 .8-1.3 1-1 1.2-2.9 3.1-5.7 5.9-.8.9-1.4 1.5-1.8 2-.6.5-1 .8-1.1.9-.2-1.6-.2-2.8-.1-3.7-.3-1.7-.4-2.6-.4-2.6.1-1.1.1-1.9.2-2.6-.2-.5-.2-1.1-.2-1.5 0-.1.1-.2.2-.4.2-.2.2-.3.2-.3 0-.3-.1-.9-.3-1.4-.1-.5-.2-.9-.2-1 .3-2.2.6-3.8.9-4.8.2-1.4.3-2.1.4-2.3.6-1 1.4-1.6 2.5-2 .9-.2 1.6-.3 2.5-.5v-.8c0-.3-.1-.5-.3-.9-.6.1-2.6.1-6 .1-.4 0-.8 0-1.4.1-.5.1-.9.1-.9.1h-3.3l-6.6-.3c-1.2-.1-1.8.3-1.8 1.1 0 .1 0 .2.1.4 1.9.2 3.3.5 4.1 1 .5.3 1.1 1 1.4 2.3.3 1 .4 1.7.4 2.5v5.3c0 .1-.1.3-.2.5v3.3c.4.5.5 1.2.4 1.7-.4 1.9-.4 3.4-.1 4.6 0-.2-.1.6-.1 2.4v4c0 .5.1 1 .4 1.4.3.3.4.5.4.4-.6 1-1 1.6-1.1 1.9 0 2.6.1 4.5.2 5.8-.2 2.6-.3 4.4-.5 5.7-.2 1.8-.4 3-.6 3.4-.4.9-1.2 1.7-2 2.2-.3.2-1 .3-1.8.4-.6.1-1.1.3-1.2.5v.3c0 .5.3.9 1 1 .5.1 1.1.1 1.6 0h5.4c-.1 0 .5-.1 1.9-.2 1.3-.1 2.1-.2 2.8-.1.2 0 .6.1 1.4.2.6.1 1.1.2 1.1.2H45c1.3-.2 2.1-.2 2.7-.3.2-.1.2-.5.2-1.3-1.1-.4-1.8-.6-2.5-.8-1.5-.3-2.7-1.1-3.5-2.6-.1-.8-.2-1.4-.2-1.8-.2-1.1-.4-1.8-.5-2.4-.2-1.6-.3-2.9-.4-3.8 0-1.8.1-3.2.1-4.2-.1-1.6-.2-2.9-.3-3.7-.1-1.5 0-2.4.3-2.6.9.6 1.6 1.1 2 1.5.8.6 1.4 1.1 1.8 1.4.6.9 1.2 1.5 1.4 1.9.6.4 1.2.6 1.6.8.3.3.4.5.5.8.5.3 1.1.5 1.4.8.1-.3.2-.5.3-.8-.3-.1-.4-.2-.4-.4.3 0 .6.1 1 .5l.6.6c1.1.3 1.7.8 2 1.3-.6-.2-1-.2-1.1-.3l-1-.3s-.2.1-.6.2c1 .9 1.8 1.5 2.6 1.9l2.4 2.4c2.6 2.1 4.6 4 6 5.4.6.5 1 1 1 1.2.8.8 1.3 1.3 1.7 1.6.1.1.1.3.1.4 0 .4-.6.6-1.8.8-.3.4-.2 1 .1 1.5l6.4-.1h3.9l6.4.1c.4-.3.2-.9-.1-1.3z"/><path class="st1" d="M19.1.4H7.6C5.7.4 3.7.4 1.9.2 1.4.1.6-.3.3.4.1.8-.1 1.8 0 2.2c.1.5 1.1.8 1.5 1 .7.3 1.5.6 2 1.3C4.6 5.8 5 7.6 5.7 9c.9 1.6.8 3.3 1 5.1.1 1 .4 1.7.6 2.6.2 1 .1 1.9.1 2.9 0 4.1.2 8.2 0 12.2 0 1-.1 1.9.1 2.9.1.4.2.9.2 1.3s-.2.9-.3 1.4c-.3 1.9 0 4-.1 5.9 0 1 .1 1.9.1 2.9 0 .3-.2.8-.2 1.2s.2.8.3 1.2c.3.9.3 1.8.3 2.8 0 .9.1 1.8 0 2.7-.1.9-.2 9.1-.1 9.9.1.9.1 3.4-.2 4.5-.8 2.4-1.9 5.9-2.1 6.3-.8 1.4-2.7 1.6-4 1.9-.6.2-1.2.4-1.3 1.2-.1.5-.1 1.3.4 1.6.5.5 1.4.3 2.1.3 1 0 1.9-.1 2.9-.1 1.9 0 3.7 0 5.7-.3.9-.1 1.8.1 2.7 0 1-.1 1.8-.2 2.7-.1 1.9.2 3.8.1 5.7.2.8 0 1.4.2 1.7-.6.1-.3.2-.8.2-1.1 0-.4.1-.6-.3-.8-1.5-.3-2.9-.8-4.1-1.7s-1.8-2.5-2.1-4c-.9-3.5-.8-7.3-.6-11 .1-2 0-4.1.1-6.2 0-1 .1-1.9 0-2.9s-.2-1.7 0-2.7c.2-1 .1-2 .1-3v-9.3c0-4.2 0-8.3.1-12.5v-6.1c0-1.9.2-3.9.5-5.8.1-1.8.4-3.7 1.1-5.4.3-.8.6-1.5 1.1-2 .5-.6 1.4-.9 2.1-1.2.4-.1 1.5-.2 1.8-.7.2-.2.2-.8.3-1.1.1-.4.2-1 .2-1.4-2.1-.1-3.8.3-5.4.4"/><defs><path id="SVGID_1_" d="M-634-5359H736V5404H-634z"/></defs><clipPath id="SVGID_2_"><use xlink:href="#SVGID_1_" overflow="visible"/></clipPath><path class="st2" d="M-54 3255h23.6v22.9H-54z"/><path class="st3" d="M-45.5 3270.1c0 .4 0 1.2.4 1.5.3.3 1.5.3 1.9.3 3.5 0 5.4-2.1 5.4-5.7 0-1.5-.3-3.1-1.4-4.2-1-1-2.6-1.4-4-1.4-.5 0-1.7.1-2 .5-.2.3-.2 1.1-.2 1.5v7.4h-.1zm-3.5 2h.2c.5-.1 1-.1 1.3-.6.2-.4.2-1.3.2-1.7v-6.9c0-1.3.1-2.3-1.4-2.4h-.2v-.5h5.6c1.8 0 4 .1 5.5 1.3 1.6 1.2 2.5 3.2 2.5 5.3 0 1.9-.9 3.9-2.4 5.1-1.6 1.2-3.6 1.3-5.6 1.3H-49v-.9z"/><defs><path id="SVGID_3_" d="M-634-5359H736V5404H-634z"/></defs><clipPath id="SVGID_4_"><use xlink:href="#SVGID_3_" overflow="visible"/></clipPath><path class="st4" d="M-39 3258h18.6v19.5H-39z"/><path class="st3" d="M-27.6 3266.1c0-1.4-.9-2.4-2.1-2.4-1.3 0-2.2 1.1-2.4 2.4h4.5zm-4.5.8v1c0 .9.3 1.9.9 2.6.5.8 1.5 1.2 2.4 1.2 1.3 0 2.1-.6 2.8-1.7l.6.3c-.6 1.5-2.2 2.3-3.9 2.3-1.3 0-2.4-.3-3.3-1.2-1-1-1.4-2.3-1.4-3.5 0-2.7 1.7-4.7 4.5-4.7 2.2 0 4.1 1.5 4.1 3.9h-6.7z"/><defs><path id="SVGID_5_" d="M-634-5359H736V5404H-634z"/></defs><clipPath id="SVGID_6_"><use xlink:href="#SVGID_5_" overflow="visible"/></clipPath><path class="st5" d="M-29 3258h21.8v19.2H-29z"/><path class="st3" d="M-13.7 3269.9c0 1 .2 1.7 1.3 1.8h.2v.5h-5v-.5h.2c1.2-.1 1.4-.8 1.4-1.8v-3.9c0-.5-.1-1-.3-1.4-.3-.4-.9-.6-1.3-.6-1.3 0-2.5.8-3.3 1.5v4.4c0 1.1.2 1.7 1.4 1.8h.2v.5h-5v-.5h.2c1.3-.1 1.5-.6 1.5-1.8v-3.9c0-1.1-.2-1.7-1.4-1.8h-.4v-.5l2.9-.4h.6v1.5c1.2-1.1 2.5-1.7 4-1.7.7 0 1.5.2 2 .8.6.5.7 1.2.7 1.9v4.1z"/><defs><path id="SVGID_7_" d="M-634-5359H736V5404H-634z"/></defs><clipPath id="SVGID_8_"><use xlink:href="#SVGID_7_" overflow="visible"/></clipPath><path class="st6" d="M-17 3255H0v22.7h-17z"/><path class="st3" d="M-5.8 3264.1h-2.7v5.3c0 1.1 0 2.6 1.4 2.6.6 0 1.2-.4 1.6-.9l.4.4c-.6.9-1.6 1.2-2.7 1.2-.6 0-1.3-.1-1.8-.4-.7-.5-.9-1.2-.9-2v-6.1H-12v-.6c2.1-.1 2.6-1.6 2.6-3.4h.9v3.4h2.7v.6z"/><defs><path id="SVGID_9_" d="M-634-5359H736V5404H-634z"/></defs><clipPath id="SVGID_10_"><use xlink:href="#SVGID_9_" overflow="visible"/></clipPath><path class="st7" d="M-10 3258h20.4v19.5H-10z"/><path class="st3" d="M1.4 3267.6c-1.4.1-4.5.5-4.5 2.4 0 1 .9 1.5 1.7 1.5 1 0 2-.6 2.8-1.3v-2.6zm4 4.2c-.4.4-1.3.6-1.9.6-1 0-1.7-.4-2-1.4-1.1.9-2.1 1.4-3.5 1.4-1.3 0-2.9-.8-2.9-2.3 0-1.3.7-1.9 1.8-2.4 1-.4 2-.6 3.1-.8l1.4-.1v-1.4c0-.5-.1-1.1-.6-1.4-.5-.3-1.2-.4-1.7-.4s-1.8.3-1.8 1v.2c0 .6-.2 1.2-1 1.2-.4 0-.9-.3-.9-.9 0-.8.9-1.5 1.5-1.7.7-.3 1.8-.5 2.7-.5.7 0 1.8.2 2.5.6 1 .5 1.1 1.3 1.1 2.4v3.7c0 .8.1 1.9 1.1 1.9.3 0 .5-.1.7-.3l.4.6z"/><defs><path id="SVGID_11_" d="M-634-5359H736V5404H-634z"/></defs><clipPath id="SVGID_12_"><use xlink:href="#SVGID_11_" overflow="visible"/></clipPath><path class="st8" d="M1 3254h14.9v23.4H1z"/><path class="st3" d="M9.4 3270.1c0 1 .1 1.7 1.3 1.8h.2v.5H6v-.5h.2c1.2-.1 1.4-.6 1.4-1.8v-7.5c0-1.3.1-2.3-1.4-2.4H6v-.5c1-.1 1.8-.2 2.7-.6h.7v11z"/><defs><path id="SVGID_13_" d="M-634-5359H736V5404H-634z"/></defs><clipPath id="SVGID_14_"><use xlink:href="#SVGID_13_" overflow="visible"/></clipPath><path class="st9" d="M13 3255h23.8v22.8H13z"/><path class="st3" d="M19.7 3262.9c0-1.3.1-2.3-1.4-2.4H18v-.5h5.2v.5H23c-.5 0-1.1.1-1.3.6-.2.4-.2 1.3-.2 1.7v2.6h6.7v-2.6c0-1.3.1-2.3-1.4-2.4h-.3v-.5h5.2v.5h-.2c-.5.1-1.1.1-1.3.6-.2.4-.2 1.3-.2 1.7v7c0 1.3-.1 2.3 1.4 2.4h.3v.5h-5.2v-.5h.2c.5 0 1.1-.1 1.3-.6.2-.4.2-1.3.2-1.7v-3.5h-6.7v3.5c0 1.3-.1 2.3 1.4 2.4h.3v.5H18v-.5h.2c.5-.1 1.1-.1 1.3-.6.2-.4.2-1.3.2-1.7v-7z"/><defs><path id="SVGID_15_" d="M-634-5359H736V5404H-634z"/></defs><clipPath id="SVGID_16_"><use xlink:href="#SVGID_15_" overflow="visible"/></clipPath><path class="st10" d="M28 3258h18.6v19.5H28z"/><path class="st3" d="M39.4 3266.1c0-1.4-.9-2.4-2.1-2.4-1.3 0-2.2 1.1-2.4 2.4h4.5zm-4.5.8v1c0 .9.3 1.9.9 2.6.5.8 1.5 1.2 2.4 1.2 1.3 0 2.1-.6 2.8-1.7l.6.3c-.6 1.5-2.2 2.3-3.9 2.3-1.3 0-2.4-.3-3.3-1.2-1-1-1.4-2.3-1.4-3.5 0-2.7 1.7-4.7 4.5-4.7 2.2 0 4.1 1.5 4.1 3.9h-6.7z"/><defs><path id="SVGID_17_" d="M-634-5359H736V5404H-634z"/></defs><clipPath id="SVGID_18_"><use xlink:href="#SVGID_17_" overflow="visible"/></clipPath><path class="st11" d="M38 3258h20.4v19.5H38z"/><path class="st3" d="M49.4 3267.6c-1.4.1-4.5.5-4.5 2.4 0 1 .9 1.5 1.7 1.5 1 0 2-.6 2.8-1.3v-2.6zm4 4.2c-.4.4-1.3.6-1.9.6-1 0-1.7-.4-2-1.4-1.1.9-2.1 1.4-3.5 1.4-1.3 0-2.9-.8-2.9-2.3 0-1.3.7-1.9 1.8-2.4 1-.4 2-.6 3.1-.8l1.4-.1v-1.4c0-.5-.1-1.1-.6-1.4-.5-.3-1.2-.4-1.7-.4s-1.8.3-1.8 1v.2c0 .6-.2 1.2-1 1.2-.4 0-.9-.3-.9-.9 0-.8.9-1.5 1.5-1.7.7-.3 1.8-.5 2.7-.5.7 0 1.8.2 2.5.6 1 .5 1.1 1.3 1.1 2.4v3.7c0 .8.1 1.9 1.1 1.9.3 0 .5-.1.7-.3l.4.6z"/><defs><path id="SVGID_19_" d="M-634-5359H736V5404H-634z"/></defs><clipPath id="SVGID_20_"><use xlink:href="#SVGID_19_" overflow="visible"/></clipPath><path class="st12" d="M48 3254h14.9v23.4H48z"/><path class="st3" d="M56.4 3270.1c0 1 .1 1.7 1.3 1.8h.2v.5H53v-.5h.2c1.2-.1 1.4-.6 1.4-1.8v-7.5c0-1.3.1-2.3-1.4-2.4H53v-.5c1-.1 1.8-.2 2.7-.6h.7v11z"/><defs><path id="SVGID_21_" d="M-634-5359H736V5404H-634z"/></defs><clipPath id="SVGID_22_"><use xlink:href="#SVGID_21_" overflow="visible"/></clipPath><path class="st13" d="M54 3255h17v22.7H54z"/><path class="st3" d="M65.2 3264.1h-2.7v5.3c0 1.1 0 2.6 1.4 2.6.6 0 1.2-.4 1.6-.9l.4.4c-.6.9-1.6 1.2-2.7 1.2-.6 0-1.3-.1-1.8-.4-.7-.5-.9-1.2-.9-2v-6.1H59v-.6c2.1-.1 2.6-1.6 2.6-3.4h.9v3.4h2.7v.6z"/><defs><path id="SVGID_23_" d="M-634-5359H736V5404H-634z"/></defs><clipPath id="SVGID_24_"><use xlink:href="#SVGID_23_" overflow="visible"/></clipPath><path class="st14" d="M61 3254h21.8v23.4H61z"/><path class="st3" d="M76.3 3270.1c0 1.1.1 1.7 1.3 1.8h.2v.5h-5v-.5h.2c1.3-.1 1.5-.6 1.5-1.8v-3.9c0-.5 0-1.1-.3-1.5-.3-.3-.9-.5-1.3-.5-1.1 0-2.6.8-3.3 1.5v4.4c0 1.1.1 1.7 1.3 1.8h.1v.5h-5v-.5h.2c1.3-.1 1.5-.6 1.5-1.8v-7.5c0-1.3.1-2.3-1.4-2.4h-.2v-.5c1-.1 1.8-.2 2.7-.6h.7v5.8c1.1-1 2.4-1.6 3.9-1.6.6 0 1.5.2 2.1.6.7.5.7 1.4.7 2.3v3.9z"/><defs><path id="SVGID_25_" d="M-634-5359H736V5404H-634z"/></defs><clipPath id="SVGID_26_"><use xlink:href="#SVGID_25_" overflow="visible"/></clipPath><path class="st15" d="M80 3254h22.4v23.4H80z"/><path class="st3" d="M97 3264.1h-.6l-.1-.1c-.4-.9-1-1.9-1.6-2.7-.9-.9-1.9-1.3-3.1-1.3-1.4 0-2.6.6-3.3 1.8-.7 1.2-1 2.7-1 4.1 0 1.3.2 2.8 1.1 3.9s2.1 1.7 3.6 1.7c1.9 0 3.6-1.2 4.6-2.8l.9.4c-1.3 2.1-3.2 3.3-5.8 3.3-3.9 0-6.6-2.8-6.6-6.7 0-3.5 2.6-6.8 6.3-6.8 1.4 0 2.7.4 3.7 1.4l.4-.9h.6l.9 4.7z"/><defs><path id="SVGID_27_" d="M-634-5359H736V5404H-634z"/></defs><clipPath id="SVGID_28_"><use xlink:href="#SVGID_27_" overflow="visible"/></clipPath><path class="st16" d="M94 3258h18.6v19.5H94z"/><path class="st3" d="M105.5 3266.1c0-1.4-.9-2.4-2.1-2.4-1.3 0-2.2 1.1-2.4 2.4h4.5zm-4.6.8v1c0 .9.3 1.9.9 2.6.5.8 1.5 1.2 2.4 1.2 1.3 0 2.1-.6 2.8-1.7l.6.3c-.6 1.5-2.2 2.3-3.9 2.3-1.3 0-2.4-.3-3.3-1.2-1-1-1.4-2.3-1.4-3.5 0-2.7 1.7-4.7 4.5-4.7 2.2 0 4.1 1.5 4.1 3.9h-6.7z"/><defs><path id="SVGID_29_" d="M-634-5359H736V5404H-634z"/></defs><clipPath id="SVGID_30_"><use xlink:href="#SVGID_29_" overflow="visible"/></clipPath><path class="st17" d="M103 3258h21.8v19.2H103z"/><path class="st3" d="M118.3 3269.9c0 1 .2 1.7 1.3 1.8h.2v.5h-5v-.5h.2c1.2-.1 1.4-.8 1.4-1.8v-3.9c0-.5-.1-1-.3-1.4-.3-.4-.9-.6-1.3-.6-1.3 0-2.5.8-3.3 1.5v4.4c0 1.1.2 1.7 1.4 1.8h.2v.5h-5v-.5h.2c1.3-.1 1.5-.6 1.5-1.8v-3.9c0-1.1-.2-1.7-1.4-1.8h-.4v-.5l2.9-.4h.6v1.5c1.1-1.1 2.5-1.7 4-1.7.7 0 1.5.2 2 .8.6.5.7 1.2.7 1.9v4.1z"/><defs><path id="SVGID_31_" d="M-634-5359H736V5404H-634z"/></defs><clipPath id="SVGID_32_"><use xlink:href="#SVGID_31_" overflow="visible"/></clipPath><path class="st18" d="M115 3255h16.9v22.7H115z"/><path class="st3" d="M126.1 3264.1h-2.7v5.3c0 1.1 0 2.6 1.4 2.6.6 0 1.2-.4 1.6-.9l.4.4c-.6.9-1.6 1.2-2.7 1.2-.6 0-1.3-.1-1.8-.4-.7-.5-.9-1.2-.9-2v-6.1H120v-.6c2.1-.1 2.6-1.6 2.6-3.4h.9v3.4h2.7v.5z"/><defs><path id="SVGID_33_" d="M-634-5359H736V5404H-634z"/></defs><clipPath id="SVGID_34_"><use xlink:href="#SVGID_33_" overflow="visible"/></clipPath><path class="st19" d="M123 3258h18.6v19.5H123z"/><path class="st3" d="M134.4 3266.1c0-1.4-.9-2.4-2.1-2.4-1.3 0-2.2 1.1-2.4 2.4h4.5zm-4.5.8v1c0 .9.3 1.9.9 2.6.5.8 1.5 1.2 2.4 1.2 1.3 0 2.1-.6 2.8-1.7l.6.3c-.6 1.5-2.2 2.3-3.9 2.3-1.3 0-2.4-.3-3.3-1.2-1-1-1.4-2.3-1.4-3.5 0-2.7 1.7-4.7 4.5-4.7 2.2 0 4.1 1.5 4.1 3.9h-6.7z"/><defs><path id="SVGID_35_" d="M-634-5359H736V5404H-634z"/></defs><clipPath id="SVGID_36_"><use xlink:href="#SVGID_35_" overflow="visible"/></clipPath><path class="st20" d="M132 3258h18v19.2h-18z"/><path class="st3" d="M140.5 3269.9c0 1.1.2 1.7 1.4 1.8h.3v.5h-5.1v-.5h.2c1.3-.1 1.4-.6 1.4-1.8v-3.9c0-1.1-.2-1.7-1.4-1.8h-.3v-.5l2.9-.4h.6v1.4c.9-.9 1.9-1.6 3.1-1.6.6 0 1.4.2 1.4 1 0 .6-.4 1-1.1 1-.9 0-1.1-.6-1.7-.6s-1.4.5-1.8 1.1v4.5h.1z"/><path class="st21" d="M26.8 78h.2c.5-.1 1-.1 1.3-.6.2-.4.2-1.3.2-1.7v-6.9c0-1.3.1-2.3-1.4-2.4h-.2v-.5h5.6c1.8 0 4 .1 5.5 1.3 1.6 1.2 2.5 3.2 2.5 5.3 0 1.9-.9 3.9-2.4 5.1-1.6 1.2-3.7 1.3-5.6 1.3h-5.7V78zm3.6-2.1c0 .4 0 1.2.4 1.5.3.3 1.5.3 1.9.3 3.6 0 5.4-2.2 5.4-5.7 0-1.5-.3-3.1-1.4-4.2-1-1-2.6-1.4-4-1.4-.5 0-1.7.1-2.1.5-.2.3-.2 1.1-.2 1.5v7.5zm13.7-2.8v1c0 .9.3 1.9.9 2.6.5.8 1.5 1.2 2.4 1.2 1.3 0 2.2-.6 2.8-1.7l.6.3c-.6 1.5-2.3 2.3-3.9 2.3-1.3 0-2.4-.3-3.4-1.2-1-1-1.4-2.3-1.4-3.6 0-2.7 1.7-4.8 4.5-4.8 2.3 0 4.1 1.5 4.1 3.9h-6.6zm4.6-.8c0-1.4-.9-2.4-2.2-2.4s-2.3 1.1-2.4 2.4h4.6zM62 76.2c0 1 .2 1.7 1.3 1.8h.2v.5h-5.1V78h.2c1.2-.1 1.4-.8 1.4-1.8v-3.9c0-.5-.1-1-.3-1.4-.3-.4-.9-.6-1.3-.6-1.3 0-2.5.8-3.4 1.5v4.4c0 1.1.2 1.7 1.4 1.8h.2v.5h-5.1V78h.2c1.3-.1 1.5-.6 1.5-1.8v-3.9c0-1.1-.2-1.7-1.4-1.8h-.3V70l2.9-.4h.6V71c1.2-1.1 2.5-1.7 4-1.7.8 0 1.5.2 2.1.8.6.5.8 1.2.8 1.9l.1 4.2zm8.2-6.2h-2.7v5.3c0 1.1 0 2.6 1.4 2.6.6 0 1.2-.4 1.6-.9l.4.4c-.6.9-1.6 1.2-2.7 1.2-.6 0-1.3-.1-1.8-.4-.8-.5-.9-1.2-.9-2.1V70h-1.6v-.6c2.2-.1 2.6-1.6 2.6-3.5h.9v3.5h2.7v.6h.1zm11.9 8.1c-.4.4-1.3.6-1.9.6-1 0-1.7-.4-2.1-1.4-1.1.9-2.2 1.4-3.6 1.4-1.3 0-2.9-.8-2.9-2.3 0-1.3.8-1.9 1.8-2.4 1-.4 2.1-.6 3.1-.8l1.4-.1v-1.4c0-.5-.1-1.1-.6-1.4-.5-.3-1.2-.4-1.7-.4s-1.8.3-1.8 1v.2c0 .6-.2 1.2-1 1.2-.4 0-.9-.3-.9-.9 0-.8.9-1.5 1.5-1.7.8-.3 1.8-.5 2.7-.5.8 0 1.8.2 2.5.6 1 .5 1.1 1.3 1.1 2.4v3.7c0 .8.1 1.9 1.1 1.9.3 0 .5-.1.8-.3l.5.6zm-4-4.2c-1.4.1-4.5.5-4.5 2.4 0 1 .9 1.5 1.7 1.5 1 0 2.1-.6 2.8-1.3v-2.6zm7.7 2.2c0 1 .1 1.7 1.3 1.8h.2v.5h-5V78h.2c1.2-.1 1.4-.6 1.4-1.8v-7.6c0-1.3.1-2.3-1.4-2.4h-.2v-.5c1-.1 1.8-.2 2.7-.6h.8v11zm10.1-7.4c0-1.3.1-2.3-1.4-2.4h-.3v-.5h5.3v.5h-.2c-.5 0-1.1.1-1.3.6-.2.4-.2 1.3-.2 1.7v2.6h6.8v-2.6c0-1.3.1-2.3-1.4-2.4h-.3v-.5h5.3v.5h-.2c-.5.1-1.1.1-1.3.6-.2.4-.2 1.3-.2 1.7v7c0 1.3-.1 2.3 1.4 2.4h.3v.5h-5.3v-.5h.2c.5 0 1.1-.1 1.3-.6.2-.4.2-1.3.2-1.7V72h-6.8v3.6c0 1.3-.1 2.3 1.4 2.4h.3v.5h-5.3V78h.2c.5-.1 1.1-.1 1.3-.6.2-.4.2-1.3.2-1.7v-7zm15.6 4.4v1c0 .9.3 1.9.9 2.6.5.8 1.5 1.2 2.4 1.2 1.3 0 2.2-.6 2.8-1.7l.6.3c-.6 1.5-2.3 2.3-3.9 2.3-1.3 0-2.4-.3-3.4-1.2-1-1-1.4-2.3-1.4-3.6 0-2.7 1.7-4.8 4.5-4.8 2.3 0 4.1 1.5 4.1 3.9h-6.6zm4.5-.8c0-1.4-.9-2.4-2.2-2.4s-2.3 1.1-2.4 2.4h4.6zm13.8 5.8c-.4.4-1.3.6-1.9.6-1 0-1.7-.4-2.1-1.4-1.1.9-2.2 1.4-3.6 1.4-1.3 0-2.9-.8-2.9-2.3 0-1.3.8-1.9 1.8-2.4 1-.4 2.1-.6 3.1-.8l1.4-.1v-1.4c0-.5-.1-1.1-.6-1.4-.5-.3-1.2-.4-1.7-.4s-1.8.3-1.8 1v.2c0 .6-.2 1.2-1 1.2-.4 0-.9-.3-.9-.9 0-.8.9-1.5 1.5-1.7.8-.3 1.8-.5 2.7-.5.8 0 1.8.2 2.5.6 1 .5 1.1 1.3 1.1 2.4v3.7c0 .8.1 1.9 1.1 1.9.3 0 .5-.1.8-.3l.5.6zm-4-4.2c-1.4.1-4.5.5-4.5 2.4 0 1 .9 1.5 1.7 1.5 1 0 2.1-.6 2.8-1.3v-2.6zm7.7 2.2c0 1 .1 1.7 1.3 1.8h.2v.5h-5V78h.2c1.2-.1 1.4-.6 1.4-1.8v-7.6c0-1.3.1-2.3-1.4-2.4h-.2v-.5c1-.1 1.8-.2 2.7-.6h.8v11zm8.3-6.1h-2.7v5.3c0 1.1 0 2.6 1.4 2.6.6 0 1.2-.4 1.6-.9l.4.4c-.6.9-1.6 1.2-2.7 1.2-.6 0-1.3-.1-1.8-.4-.8-.5-.9-1.2-.9-2.1V70h-1.6v-.6c2.2-.1 2.6-1.6 2.6-3.5h.9v3.5h2.7v.6h.1zm11.3 6.1c0 1.1.1 1.7 1.3 1.8h.2v.5h-5.1V78h.2c1.3-.1 1.5-.6 1.5-1.8v-3.9c0-.5 0-1.1-.3-1.5-.3-.3-.9-.5-1.3-.5-1.1 0-2.6.8-3.4 1.5v4.4c0 1.1.1 1.7 1.3 1.8h.2v.5h-5.1V78h.2c1.3-.1 1.5-.6 1.5-1.8v-7.6c0-1.3.1-2.3-1.4-2.4h-.2v-.5c1-.1 1.8-.2 2.7-.6h.8v5.8c1.1-1 2.4-1.6 3.9-1.6.6 0 1.5.2 2.2.6.8.5.8 1.4.8 2.3v3.9zm20.8-5.7h-.6l-.1-.1c-.4-.9-1-1.9-1.6-2.7-.9-.9-1.9-1.3-3.1-1.3-1.4 0-2.6.6-3.4 1.8-.8 1.2-1 2.7-1 4.1 0 1.3.2 2.8 1.1 3.9.9 1.1 2.2 1.7 3.7 1.7 1.9 0 3.7-1.2 4.7-2.8l.9.4c-1.3 2.2-3.2 3.4-5.8 3.4-3.9 0-6.7-2.8-6.7-6.7 0-3.6 2.6-6.8 6.4-6.8 1.4 0 2.7.4 3.8 1.4l.4-.9h.6l.7 4.6zm3.8 2.7v1c0 .9.3 1.9.9 2.6.5.8 1.5 1.2 2.4 1.2 1.3 0 2.2-.6 2.8-1.7l.6.3c-.6 1.5-2.3 2.3-3.9 2.3-1.3 0-2.4-.3-3.4-1.2-1-1-1.4-2.3-1.4-3.6 0-2.7 1.7-4.8 4.5-4.8 2.3 0 4.1 1.5 4.1 3.9h-6.6zm4.6-.8c0-1.4-.9-2.4-2.2-2.4s-2.3 1.1-2.4 2.4h4.6zm13.2 3.9c0 1 .2 1.7 1.3 1.8h.2v.5h-5V78h.2c1.2-.1 1.4-.8 1.4-1.8v-3.9c0-.5-.1-1-.3-1.4-.3-.4-.9-.6-1.3-.6-1.3 0-2.5.8-3.4 1.5v4.4c0 1.1.2 1.7 1.4 1.8h.2v.5h-5.1V78h.2c1.3-.1 1.5-.6 1.5-1.8v-3.9c0-1.1-.2-1.7-1.4-1.8h-.3V70l2.9-.4h.6V71c1.1-1.1 2.5-1.7 4-1.7.8 0 1.5.2 2.1.8.6.5.8 1.2.8 1.9v4.2zm8.4-6.2h-2.7v5.3c0 1.1 0 2.6 1.4 2.6.6 0 1.2-.4 1.6-.9l.4.4c-.6.9-1.6 1.2-2.7 1.2-.6 0-1.3-.1-1.8-.4-.8-.5-.9-1.2-.9-2.1V70h-1.5v-.6c2.2-.1 2.6-1.6 2.6-3.5h.9v3.5h2.7v.6zm3.4 3.1v1c0 .9.3 1.9.9 2.6.5.8 1.5 1.2 2.4 1.2 1.3 0 2.2-.6 2.8-1.7l.6.3c-.6 1.5-2.3 2.3-3.9 2.3-1.3 0-2.4-.3-3.4-1.2-1-1-1.4-2.3-1.4-3.6 0-2.7 1.7-4.8 4.5-4.8 2.3 0 4.1 1.5 4.1 3.9h-6.6zm4.6-.8c0-1.4-.9-2.4-2.2-2.4s-2.3 1.1-2.4 2.4h4.6zm6.4 3.8c0 1.1.2 1.7 1.4 1.8h.3v.5h-5.2V78h.2c1.3-.1 1.4-.6 1.4-1.8v-3.9c0-1.1-.2-1.7-1.4-1.8h-.3V70l2.9-.4h.6V71c.9-.9 1.9-1.6 3.1-1.6.6 0 1.4.2 1.4 1 0 .6-.4 1-1.1 1-.9 0-1.1-.6-1.7-.6s-1.4.5-1.8 1.1v4.5h.2z"/></svg>